<svg xmlns="http://www.w3.org/2000/svg" width="20" height="20" viewBox="0 0 20 20" fill="none">
  <path d="M14.1671 7.64168C14.0109 7.48647 13.7997 7.39935 13.5796 7.39935C13.3594 7.39935 13.1482 7.48647 12.9921 7.64168L10.0004 10.5917L7.0504 7.64168C6.89427 7.48647 6.68306 7.39935 6.4629 7.39935C6.24275 7.39935 6.03154 7.48647 5.8754 7.64168C5.7973 7.71915 5.7353 7.81132 5.693 7.91287C5.65069 8.01442 5.62891 8.12334 5.62891 8.23335C5.62891 8.34336 5.65069 8.45228 5.693 8.55383C5.7353 8.65538 5.7973 8.74754 5.8754 8.82501L9.40874 12.3583C9.48621 12.4365 9.57837 12.4984 9.67992 12.5408C9.78147 12.5831 9.89039 12.6048 10.0004 12.6048C10.1104 12.6048 10.2193 12.5831 10.3209 12.5408C10.4224 12.4984 10.5146 12.4365 10.5921 12.3583L14.1671 8.82501C14.2452 8.74754 14.3072 8.65538 14.3495 8.55383C14.3918 8.45228 14.4136 8.34336 14.4136 8.23335C14.4136 8.12334 14.3918 8.01442 14.3495 7.91287C14.3072 7.81132 14.2452 7.71915 14.1671 7.64168Z" fill="#151515"/>
</svg>
