<svg width="86" height="27" viewBox="0 0 86 27" fill="none" xmlns="http://www.w3.org/2000/svg">
<path d="M0.29003 20.8591H0L2.47762 9.00473C2.51193 8.83016 2.60287 8.74287 2.75042 8.74287H11.4802C11.5105 8.74259 11.5405 8.75106 11.5678 8.76764C11.5951 8.78422 11.6191 8.80848 11.6379 8.8386C11.6567 8.86872 11.6699 8.90391 11.6765 8.94154C11.683 8.97916 11.6828 9.01824 11.6758 9.05583L11.264 11.1508C11.2228 11.3467 11.1216 11.4446 10.9603 11.4446H6.61602C6.44444 11.4446 6.33806 11.5468 6.29689 11.7512L6.06526 12.9264C6.05906 12.9592 6.0589 12.9932 6.0648 13.0261C6.0707 13.059 6.0825 13.0897 6.09933 13.1161C6.11615 13.1425 6.13757 13.1639 6.16197 13.1786C6.18637 13.1933 6.21314 13.201 6.24027 13.201H10.2088C10.3117 13.201 10.3495 13.2628 10.322 13.3863L9.86908 15.6026C9.8485 15.7218 9.78844 15.7814 9.68893 15.7814L5.72039 15.7878C5.56941 15.7878 5.48019 15.8793 5.45273 16.0624L5.18508 17.87C5.16449 18.0105 5.21253 18.0807 5.3292 18.0807L10.0956 18.0424C10.1848 18.0424 10.2191 18.0956 10.1985 18.2021L9.70437 20.7122C9.68378 20.8229 9.62888 20.8783 9.53966 20.8783L0.29003 20.8591Z" fill="#B32541"/>
<path d="M24.7747 24.5508H20.6878L18.2171 21.0124C18.1004 20.8421 17.9529 20.774 17.7745 20.808C15.7928 21.1721 13.2191 21.3829 11.536 20.1757C9.96606 19.0452 11.1705 13.6673 11.7007 12.243C12.2566 10.7356 13.5074 10.0458 14.8663 9.80312C16.6009 9.49016 20.6775 9.37519 21.7276 11.1252C22.3813 12.211 22.057 14.223 21.7687 15.4173C21.7509 15.4927 21.7132 15.559 21.6613 15.6061C21.6093 15.6533 21.5459 15.679 21.4805 15.6792L19.1797 15.6537C18.7953 15.6494 18.7284 15.8261 18.9789 16.1838L24.7747 24.5508ZM17.7024 11.8406C14.7015 11.0678 14.1302 15.5642 14.3567 18.1957C14.3731 18.3952 14.4396 18.5832 14.5467 18.7333C14.6538 18.8834 14.7962 18.988 14.9538 19.0324C17.8774 19.8627 18.212 15.8389 18.5568 13.4054C18.6056 13.058 18.5438 12.7007 18.3844 12.4088C18.225 12.1169 17.9805 11.9132 17.7024 11.8406Z" fill="#B32541"/>
<path d="M25.95 17.6912C25.9199 17.8531 25.9185 18.0213 25.9459 18.184C25.9732 18.3468 26.0287 18.5002 26.1084 18.6338C26.1882 18.7674 26.2903 18.8779 26.4078 18.9577C26.5253 19.0376 26.6554 19.0849 26.789 19.0963L27.1185 19.1282C28.0278 19.2049 28.5923 18.6939 28.8119 17.5954L30.2377 10.4802C30.272 10.2971 30.3647 10.2055 30.5157 10.2055L33.7533 10.2119C33.894 10.2119 33.9489 10.2971 33.918 10.4674C32.7804 16.4712 33.115 22.5262 26.0581 21.0252C25.8797 20.9869 25.7321 20.8847 25.6155 20.7186L22.6918 16.5734C22.6314 16.4888 22.5882 16.3873 22.5658 16.2773C22.5435 16.1673 22.5425 16.0521 22.5631 15.9411L23.5668 10.4802C23.6012 10.2971 23.6938 10.2055 23.8448 10.2055L27.0721 10.2119C27.2368 10.2119 27.3003 10.3099 27.2626 10.5057L25.95 17.6912Z" fill="#B32541"/>
<path d="M39.0267 10.4737L37.1171 20.5844C37.1089 20.6312 37.0881 20.6731 37.0582 20.7033C37.0282 20.7335 36.9909 20.7501 36.9523 20.7505L33.653 20.7441C33.6277 20.7439 33.6028 20.7367 33.5801 20.723C33.5574 20.7093 33.5374 20.6895 33.5216 20.665C33.5058 20.6405 33.4946 20.612 33.4889 20.5815C33.4831 20.551 33.4829 20.5193 33.4882 20.4886L35.367 10.3779C35.3752 10.3312 35.3959 10.2892 35.4259 10.259C35.4558 10.2289 35.4931 10.2122 35.5317 10.2119H38.8568C38.8831 10.2109 38.9091 10.2175 38.933 10.2311C38.9568 10.2447 38.9778 10.265 38.9942 10.2904C39.0107 10.3158 39.0222 10.3455 39.0278 10.3773C39.0335 10.4091 39.0331 10.4421 39.0267 10.4737Z" fill="#B32541"/>
<path d="M43.6713 14.2485L46.8471 14.2549C46.8737 14.2552 46.8999 14.2628 46.9239 14.2771C46.9478 14.2914 46.9689 14.3122 46.9856 14.3378C47.0024 14.3634 47.0143 14.3934 47.0206 14.4254C47.0269 14.4575 47.0274 14.4909 47.0221 14.5232L46.7699 16.0241C46.7617 16.0743 46.7398 16.1194 46.7079 16.152C46.6761 16.1846 46.6362 16.2025 46.5949 16.203L43.1926 16.2094C43.152 16.2095 43.1127 16.2266 43.0809 16.2578C43.0491 16.2891 43.0268 16.3328 43.0176 16.3818L42.2558 20.5845C42.2465 20.6335 42.2242 20.6772 42.1924 20.7085C42.1607 20.7398 42.1213 20.7568 42.0808 20.7569L38.7762 20.7378C38.7491 20.7377 38.7223 20.73 38.6979 20.7153C38.6735 20.7006 38.6521 20.6793 38.6353 20.6529C38.6184 20.6265 38.6066 20.5957 38.6007 20.5628C38.5948 20.53 38.595 20.4959 38.6012 20.4631L40.4542 10.378C40.4635 10.329 40.4858 10.2853 40.5176 10.254C40.5493 10.2227 40.5887 10.2056 40.6292 10.2055L48.2317 10.2119C48.2588 10.2112 48.2856 10.2181 48.3101 10.232C48.3347 10.2459 48.3565 10.2665 48.3738 10.2923C48.3911 10.3181 48.4035 10.3483 48.4101 10.3809C48.4167 10.4134 48.4173 10.4473 48.4119 10.4802L48.1545 12.0897C48.1461 12.141 48.1235 12.1869 48.0905 12.2196C48.0576 12.2523 48.0165 12.2696 47.9744 12.2686L43.9338 12.2622C43.8925 12.2626 43.8526 12.2806 43.8208 12.3131C43.7889 12.3457 43.767 12.3908 43.7588 12.441L43.4963 13.9803C43.4909 14.0126 43.4914 14.046 43.4978 14.078C43.5041 14.1101 43.516 14.14 43.5327 14.1657C43.5495 14.1913 43.5706 14.212 43.5945 14.2264C43.6185 14.2407 43.6447 14.2483 43.6713 14.2485Z" fill="#B32541"/>
<path d="M56.523 18.4512L59.1481 15.6281C59.1809 15.5933 59.2021 15.5448 59.2078 15.4917C59.2135 15.4387 59.2033 15.3849 59.179 15.3407L56.5333 10.544C56.5156 10.5114 56.5053 10.4735 56.5036 10.4342C56.5019 10.395 56.5089 10.3559 56.5237 10.3212C56.5384 10.2865 56.5606 10.2573 56.5876 10.237C56.6147 10.2166 56.6457 10.2057 56.6774 10.2055L60.929 10.2119C60.9575 10.2121 60.9855 10.2209 61.0107 10.2376C61.0358 10.2543 61.0572 10.2784 61.0732 10.3077L62.3703 12.7092C62.3844 12.7349 62.4028 12.7566 62.4242 12.7727C62.4456 12.7888 62.4696 12.799 62.4945 12.8027C62.5194 12.8063 62.5446 12.8033 62.5685 12.7937C62.5923 12.7842 62.6142 12.7685 62.6328 12.7475L64.7895 10.2694C64.8217 10.2325 64.864 10.2119 64.9079 10.2119L67.9139 10.1991C67.9498 10.199 67.9849 10.2126 68.0144 10.2381C68.0438 10.2635 68.0663 10.2996 68.0786 10.3415C68.091 10.3834 68.0927 10.4289 68.0835 10.472C68.0743 10.5151 68.0546 10.5536 68.0271 10.5823L63.8218 14.9702C63.7882 15.0041 63.7659 15.0523 63.7593 15.1053C63.7526 15.1584 63.7621 15.2127 63.7858 15.2576L66.6065 20.412C66.6242 20.4446 66.6344 20.4825 66.6361 20.5217C66.6378 20.561 66.6309 20.6 66.6161 20.6348C66.6013 20.6695 66.5792 20.6986 66.5521 20.719C66.525 20.7394 66.494 20.7503 66.4623 20.7505L62.3034 20.7377C62.273 20.7372 62.2433 20.727 62.2171 20.7079C62.191 20.6889 62.1692 20.6618 62.1541 20.6292L60.7952 17.7869C60.7817 17.7586 60.7632 17.7345 60.7411 17.7164C60.719 17.6983 60.6938 17.6866 60.6676 17.6823C60.6413 17.678 60.6146 17.6812 60.5894 17.6915C60.5643 17.7019 60.5414 17.7192 60.5224 17.7422L58.1032 20.6803C58.0704 20.721 58.026 20.744 57.9796 20.7441L52.7964 20.7505C52.7533 20.7509 52.7116 20.7315 52.6794 20.6962C52.6471 20.6608 52.6264 20.612 52.6213 20.5589L52.4155 18.5981C52.4104 18.545 52.3897 18.4961 52.3575 18.4608C52.3252 18.4254 52.2835 18.4061 52.2405 18.4065L48.6991 18.3937C48.6711 18.3932 48.6434 18.401 48.6183 18.4166C48.5932 18.4321 48.5715 18.455 48.555 18.4831L47.2991 20.6547C47.2831 20.682 47.2622 20.7042 47.2381 20.7198C47.214 20.7353 47.1873 20.7436 47.1601 20.7441L45.0343 20.7569C45.0022 20.7563 44.9709 20.7448 44.9437 20.7237C44.9166 20.7025 44.8946 20.6725 44.8803 20.6369C44.8659 20.6013 44.8598 20.5615 44.8624 20.5218C44.8651 20.4822 44.8764 20.4442 44.8953 20.412L50.8713 10.3013C50.8873 10.274 50.9081 10.2517 50.9323 10.2362C50.9564 10.2207 50.9831 10.2124 51.0103 10.2119H55.2413C55.2844 10.2115 55.326 10.2308 55.3583 10.2662C55.3906 10.3015 55.4112 10.3504 55.4163 10.4035L56.2347 18.3107C56.2382 18.35 56.2503 18.3873 56.2697 18.4187C56.2891 18.4501 56.315 18.4744 56.3447 18.4889C56.3743 18.5033 56.4066 18.5074 56.4381 18.5008C56.4695 18.4942 56.4988 18.477 56.523 18.4512ZM52.1529 15.9474L51.8853 13.0797C51.8544 12.7475 51.76 12.7177 51.6022 12.9902L50.0426 15.7239C49.8744 16.022 49.9379 16.171 50.233 16.171L52.0037 16.1518C52.0249 16.151 52.0457 16.1449 52.0649 16.134C52.0841 16.1231 52.1012 16.1076 52.1153 16.0884C52.1293 16.0693 52.1398 16.0468 52.1463 16.0226C52.1528 15.9983 52.1551 15.9728 52.1529 15.9474Z" fill="#B32541"/>
</svg>
