<svg width="69" height="17" viewBox="0 0 69 17" fill="none" xmlns="http://www.w3.org/2000/svg">
  <path d="M0.29003 12.8591H0L2.47762 1.00473C2.51193 0.830155 2.60287 0.742865 2.75042 0.742865H11.4802C11.5105 0.742589 11.5405 0.75106 11.5678 0.767642C11.5951 0.784223 11.6191 0.808484 11.6379 0.838603C11.6567 0.868722 11.6699 0.903914 11.6765 0.941538C11.683 0.979162 11.6828 1.01824 11.6758 1.05583L11.264 3.15078C11.2228 3.34665 11.1216 3.44459 10.9603 3.44459H6.61602C6.44444 3.44459 6.33806 3.54678 6.29689 3.75117L6.06526 4.92638C6.05906 4.95915 6.0589 4.99324 6.0648 5.02609C6.0707 5.05895 6.0825 5.08973 6.09933 5.11613C6.11615 5.14254 6.13757 5.16389 6.16197 5.17859C6.18637 5.19329 6.21314 5.20096 6.24027 5.20103H10.2088C10.3117 5.20103 10.3495 5.26277 10.322 5.38625L9.86908 7.60256C9.8485 7.72178 9.78844 7.7814 9.68893 7.7814L5.72039 7.78778C5.56941 7.78778 5.48019 7.87933 5.45273 8.06243L5.18508 9.86996C5.16449 10.0105 5.21253 10.0807 5.3292 10.0807L10.0956 10.0424C10.1848 10.0424 10.2191 10.0956 10.1985 10.2021L9.70437 12.7122C9.68378 12.8229 9.62888 12.8783 9.53966 12.8783L0.29003 12.8591Z" fill="#B32541"/>
  <path d="M24.7747 16.5508H20.6878L18.2171 13.0124C18.1004 12.8421 17.9529 12.774 17.7745 12.808C15.7928 13.1721 13.2191 13.3829 11.536 12.1757C9.96606 11.0452 11.1705 5.66729 11.7007 4.24298C12.2566 2.73563 13.5074 2.04583 14.8663 1.80312C16.6009 1.49016 20.6775 1.37519 21.7276 3.12524C22.3813 4.21104 22.057 6.22297 21.7687 7.41735C21.7509 7.49273 21.7132 7.55896 21.6613 7.60615C21.6093 7.65334 21.5459 7.67897 21.4805 7.67921L19.1797 7.65367C18.7953 7.64941 18.7284 7.82612 18.9789 8.18379L24.7747 16.5508ZM17.7024 3.84059C14.7015 3.06776 14.1302 7.56425 14.3567 10.1957C14.3731 10.3952 14.4396 10.5832 14.5467 10.7333C14.6538 10.8834 14.7962 10.988 14.9538 11.0324C17.8774 11.8627 18.212 7.83889 18.5568 5.40542C18.6056 5.05804 18.5438 4.70073 18.3844 4.40881C18.225 4.11689 17.9805 3.91317 17.7024 3.84059Z" fill="#B32541"/>
  <path d="M25.95 9.69116C25.9199 9.85315 25.9185 10.0213 25.9459 10.184C25.9732 10.3468 26.0287 10.5002 26.1084 10.6338C26.1882 10.7674 26.2903 10.8779 26.4078 10.9577C26.5253 11.0376 26.6554 11.0849 26.789 11.0963L27.1185 11.1282C28.0278 11.2049 28.5923 10.6939 28.8119 9.59535L30.2377 2.48018C30.272 2.29708 30.3647 2.20553 30.5157 2.20553L33.7533 2.21192C33.894 2.21192 33.9489 2.29708 33.918 2.4674C32.7804 8.47123 33.115 14.5262 26.0581 13.0252C25.8797 12.9869 25.7321 12.8847 25.6155 12.7186L22.6918 8.57342C22.6314 8.48881 22.5882 8.38729 22.5658 8.27731C22.5435 8.16732 22.5425 8.05205 22.5631 7.94111L23.5668 2.48018C23.6012 2.29708 23.6938 2.20553 23.8448 2.20553L27.0721 2.21192C27.2368 2.21192 27.3003 2.30985 27.2626 2.50572L25.95 9.69116Z" fill="#B32541"/>
  <path d="M39.0267 2.47373L37.1171 12.5844C37.1089 12.6312 37.0881 12.6731 37.0582 12.7033C37.0282 12.7335 36.9909 12.7501 36.9523 12.7505L33.653 12.7441C33.6277 12.7439 33.6028 12.7367 33.5801 12.723C33.5574 12.7093 33.5374 12.6895 33.5216 12.665C33.5058 12.6405 33.4946 12.612 33.4889 12.5815C33.4831 12.551 33.4829 12.5193 33.4882 12.4886L35.367 2.37793C35.3752 2.33115 35.3959 2.28923 35.4259 2.25905C35.4558 2.22886 35.4931 2.21223 35.5317 2.21186H38.8568C38.8831 2.21089 38.9091 2.21747 38.933 2.23109C38.9568 2.24472 38.9778 2.26501 38.9942 2.29039C39.0107 2.31576 39.0222 2.34552 39.0278 2.37733C39.0335 2.40914 39.0331 2.44214 39.0267 2.47373Z" fill="#B32541"/>
  <path d="M43.6713 6.24854L46.8471 6.25492C46.8737 6.2552 46.8999 6.26277 46.9239 6.2771C46.9478 6.29143 46.9689 6.31216 46.9856 6.33781C47.0024 6.36345 47.0143 6.39337 47.0206 6.42542C47.0269 6.45747 47.0274 6.49085 47.0221 6.52318L46.7699 8.02414C46.7617 8.07431 46.7398 8.11945 46.7079 8.152C46.6761 8.18455 46.6362 8.20255 46.5949 8.20297L43.1926 8.20936C43.152 8.20947 43.1127 8.22655 43.0809 8.25785C43.0491 8.28914 43.0268 8.33282 43.0176 8.38181L42.2558 12.5845C42.2465 12.6335 42.2242 12.6772 42.1924 12.7085C42.1607 12.7398 42.1213 12.7568 42.0808 12.7569L38.7762 12.7378C38.7491 12.7377 38.7223 12.73 38.6979 12.7153C38.6735 12.7006 38.6521 12.6793 38.6353 12.6529C38.6184 12.6265 38.6066 12.5957 38.6007 12.5628C38.5948 12.53 38.595 12.4959 38.6012 12.4631L40.4542 2.37798C40.4635 2.32899 40.4858 2.28531 40.5176 2.25402C40.5493 2.22272 40.5887 2.20564 40.6292 2.20553L48.2317 2.21192C48.2588 2.21124 48.2856 2.21811 48.3101 2.23203C48.3347 2.24595 48.3565 2.26655 48.3738 2.29231C48.3911 2.31807 48.4035 2.34833 48.4101 2.38085C48.4167 2.41337 48.4173 2.44732 48.4119 2.48018L48.1545 4.08971C48.1461 4.14097 48.1235 4.18693 48.0905 4.21961C48.0576 4.25229 48.0165 4.2696 47.9744 4.26855L43.9338 4.26216C43.8925 4.26259 43.8526 4.28059 43.8208 4.31314C43.7889 4.34569 43.767 4.39083 43.7588 4.441L43.4963 5.98028C43.4909 6.01261 43.4914 6.04599 43.4978 6.07804C43.5041 6.11009 43.516 6.14001 43.5327 6.16565C43.5495 6.1913 43.5706 6.21203 43.5945 6.22636C43.6185 6.24069 43.6447 6.24826 43.6713 6.24854Z" fill="#B32541"/>
  <path d="M56.523 10.4512L59.1481 7.62809C59.1809 7.59332 59.2021 7.54476 59.2078 7.49172C59.2135 7.43867 59.2033 7.38489 59.179 7.34067L56.5333 2.544C56.5156 2.51141 56.5053 2.47348 56.5036 2.43425C56.5019 2.39501 56.5089 2.35594 56.5237 2.3212C56.5384 2.28646 56.5606 2.25735 56.5876 2.23697C56.6147 2.21659 56.6457 2.20571 56.6774 2.20548L60.929 2.21187C60.9575 2.21208 60.9855 2.22091 61.0107 2.23761C61.0358 2.2543 61.0572 2.27836 61.0732 2.30768L62.3703 4.70921C62.3844 4.73491 62.4028 4.75656 62.4242 4.77268C62.4456 4.78881 62.4696 4.79903 62.4945 4.80266C62.5194 4.8063 62.5446 4.80326 62.5685 4.79374C62.5923 4.78423 62.6142 4.76847 62.6328 4.74753L64.7895 2.26936C64.8217 2.23246 64.864 2.21194 64.9079 2.21187L67.9139 2.1991C67.9498 2.19898 67.9849 2.21258 68.0144 2.23805C68.0438 2.26353 68.0663 2.29965 68.0786 2.3415C68.091 2.38335 68.0927 2.42891 68.0835 2.47199C68.0743 2.51508 68.0546 2.5536 68.0271 2.58232L63.8218 6.97023C63.7882 7.00412 63.7659 7.05226 63.7593 7.10534C63.7526 7.15843 63.7621 7.21269 63.7858 7.25764L66.6065 12.412C66.6242 12.4446 66.6344 12.4825 66.6361 12.5217C66.6378 12.561 66.6309 12.6 66.6161 12.6348C66.6013 12.6695 66.5792 12.6986 66.5521 12.719C66.525 12.7394 66.494 12.7503 66.4623 12.7505L62.3034 12.7377C62.273 12.7372 62.2433 12.727 62.2171 12.7079C62.191 12.6889 62.1692 12.6618 62.1541 12.6292L60.7952 9.78692C60.7817 9.75863 60.7632 9.73451 60.7411 9.7164C60.719 9.69828 60.6938 9.68663 60.6676 9.68232C60.6413 9.67801 60.6146 9.68117 60.5894 9.69154C60.5643 9.70192 60.5414 9.71924 60.5224 9.74221L58.1032 12.6803C58.0704 12.721 58.026 12.744 57.9796 12.7441L52.7964 12.7505C52.7533 12.7509 52.7116 12.7315 52.6794 12.6962C52.6471 12.6608 52.6264 12.612 52.6213 12.5589L52.4155 10.5981C52.4104 10.545 52.3897 10.4961 52.3575 10.4608C52.3252 10.4254 52.2835 10.4061 52.2405 10.4065L48.6991 10.3937C48.6711 10.3932 48.6434 10.401 48.6183 10.4166C48.5932 10.4321 48.5715 10.455 48.555 10.4831L47.2991 12.6547C47.2831 12.682 47.2622 12.7042 47.2381 12.7198C47.214 12.7353 47.1873 12.7436 47.1601 12.7441L45.0343 12.7569C45.0022 12.7563 44.9709 12.7448 44.9437 12.7237C44.9166 12.7025 44.8946 12.6725 44.8803 12.6369C44.8659 12.6013 44.8598 12.5615 44.8624 12.5218C44.8651 12.4822 44.8764 12.4442 44.8953 12.412L50.8713 2.30129C50.8873 2.27402 50.9081 2.25174 50.9323 2.23622C50.9564 2.2207 50.9831 2.21237 51.0103 2.21187H55.2413C55.2844 2.2115 55.326 2.23084 55.3583 2.26619C55.3906 2.30154 55.4112 2.35042 55.4163 2.40348L56.2347 10.3107C56.2382 10.35 56.2503 10.3873 56.2697 10.4187C56.2891 10.4501 56.315 10.4744 56.3447 10.4889C56.3743 10.5033 56.4066 10.5074 56.4381 10.5008C56.4695 10.4942 56.4988 10.477 56.523 10.4512ZM52.1529 7.94745L51.8853 5.07966C51.8544 4.74753 51.76 4.71773 51.6022 4.99024L50.0426 7.7239C49.8744 8.02196 49.9379 8.17099 50.233 8.17099L52.0037 8.15183C52.0249 8.151 52.0457 8.14495 52.0649 8.13404C52.0841 8.12313 52.1012 8.10761 52.1153 8.08843C52.1293 8.06926 52.1398 8.04684 52.1463 8.02258C52.1528 7.99833 52.1551 7.97275 52.1529 7.94745Z" fill="#B32541"/>
</svg>
