<svg width="86" height="27" viewBox="0 0 86 27" fill="none" xmlns="http://www.w3.org/2000/svg">
<path d="M10.6265 4.50454L8.1641 4.51291C7.42855 4.51541 6.83436 5.09839 6.83692 5.81504L6.84551 8.21204C6.84808 8.92868 7.44644 9.50761 8.18199 9.50511L10.6443 9.49673C11.3799 9.49423 11.9741 8.91125 11.9715 8.1946L11.9629 5.7976C11.9604 5.08096 11.362 4.50204 10.6265 4.50454Z" fill="#406EB3"/>
<path d="M15.8716 7.69785L14.5041 7.70017C14.0906 7.70088 13.756 8.02805 13.7567 8.43093L13.7591 9.76329C13.7598 10.1662 14.0956 10.4922 14.5091 10.4915L15.8766 10.4892C16.2901 10.4885 16.6247 10.1613 16.624 9.75842L16.6216 8.42605C16.6209 8.02317 16.2851 7.69714 15.8716 7.69785Z" fill="#BA2F7D"/>
<path d="M4.26283 9.28145H1.49479C0.669239 9.28145 0 9.93349 0 10.7378V13.4306C0 14.2349 0.669239 14.8869 1.49479 14.8869H4.26283C5.08838 14.8869 5.75762 14.2349 5.75762 13.4306V10.7378C5.75762 9.93349 5.08838 9.28145 4.26283 9.28145Z" fill="#632678"/>
<path d="M46.2536 11.3894C46.6947 11.3946 47.0566 11.0554 47.0619 10.6316C47.0673 10.2078 46.714 9.86005 46.2728 9.8548C45.8317 9.84955 45.4698 10.1888 45.4645 10.6126C45.4592 11.0364 45.8125 11.3841 46.2536 11.3894Z" fill="#26478D"/>
<path d="M23.6885 19.0802C23.6857 20.1206 23.6853 21.1609 23.6874 22.201C23.6878 22.3871 23.6677 22.5221 23.6273 22.6062C23.3823 23.1131 22.6522 23.0877 22.4312 22.5797C22.3971 22.5015 22.3801 22.376 22.3801 22.203C22.3801 19.1454 22.3773 16.0877 22.3716 13.03C22.37 12.2917 23.4004 12.0624 23.6518 12.7603C23.7002 12.8957 23.6896 13.0721 23.6864 13.2257C23.686 13.2447 23.6942 13.249 23.7109 13.2386C23.762 13.2054 23.8108 13.1707 23.8573 13.1343C25.4416 11.9068 27.6915 12.0022 29.1314 13.3533C30.6171 14.7474 30.7583 17.0458 29.4578 18.6028C28.0104 20.3358 25.4442 20.4899 23.7125 19.0698C23.6965 19.057 23.6885 19.0605 23.6885 19.0802ZM29.0036 16.1617C29.0036 15.4718 28.7223 14.8101 28.2216 14.3222C27.7208 13.8344 27.0417 13.5603 26.3335 13.5603C25.6254 13.5603 24.9463 13.8344 24.4455 14.3222C23.9448 14.8101 23.6635 15.4718 23.6635 16.1617C23.6635 16.8517 23.9448 17.5134 24.4455 18.0012C24.9463 18.4891 25.6254 18.7632 26.3335 18.7632C27.0417 18.7632 27.7208 18.4891 28.2216 18.0012C28.7223 17.5134 29.0036 16.8517 29.0036 16.1617Z" fill="#26478D"/>
<path d="M8.92351 16.6686C8.9201 16.6687 8.91673 16.6694 8.91366 16.6708C8.91058 16.6722 8.90787 16.6743 8.90573 16.6768C8.90358 16.6794 8.90206 16.6823 8.90127 16.6855C8.90047 16.6886 8.90043 16.6919 8.90115 16.6951C9.19989 18.1359 10.5466 18.9645 12.0196 18.744C12.5599 18.663 13.0383 18.4128 13.4547 17.9932C13.5392 17.9078 13.647 17.8576 13.778 17.8428C14.2594 17.7888 14.6604 18.2672 14.474 18.7056C14.431 18.8062 14.3362 18.9219 14.1896 19.0527C11.8955 21.099 8.17585 19.8584 7.59061 16.9089C7.25512 15.219 8.1013 13.511 9.67543 12.7245C11.855 11.636 14.6098 12.7073 15.3441 15.0011C15.4485 15.3269 15.4977 15.6386 15.4916 15.9361C15.4852 16.2387 15.3473 16.463 15.0779 16.609C15.0047 16.6484 14.9144 16.6683 14.8068 16.6686C12.8425 16.6697 10.8814 16.6697 8.92351 16.6686ZM9.08806 15.0639C9.03836 15.1625 9.00091 15.2566 8.9757 15.3461C8.97073 15.3645 8.97783 15.3736 8.997 15.3736L14.0304 15.3731C14.0321 15.3731 14.0338 15.3727 14.0354 15.3719C14.0369 15.3712 14.0383 15.3701 14.0393 15.3687C14.0403 15.3673 14.041 15.3658 14.0413 15.3641C14.0416 15.3624 14.0415 15.3607 14.041 15.3591C13.2609 13.0882 10.1456 12.9662 9.08806 15.0639Z" fill="#26478D"/>
<path d="M32.6953 16.6686C32.6886 16.6686 32.6819 16.6702 32.6759 16.6731C32.6698 16.676 32.6646 16.6802 32.6604 16.6854C32.6563 16.6906 32.6535 16.6967 32.6522 16.7031C32.6508 16.7096 32.651 16.7162 32.6527 16.7226C32.8029 17.3026 33.0841 17.7722 33.4962 18.1312C34.443 18.9551 36.0869 19.0355 37.0428 18.1582C37.2072 18.007 37.3181 17.9185 37.3756 17.8925C37.8634 17.6715 38.3954 18.1577 38.2458 18.6438C38.2071 18.769 38.1128 18.9001 37.963 19.0371C36.2472 20.6081 33.4568 20.3119 32.0632 18.4996C30.2921 16.1954 31.6457 12.8775 34.5352 12.3576C36.5316 11.9986 38.5909 13.1888 39.1367 15.1318C39.2789 15.6372 39.3721 16.2997 38.8422 16.61C38.7758 16.6491 38.6951 16.6686 38.5999 16.6686C36.6214 16.6693 34.6532 16.6693 32.6953 16.6686ZM32.7246 15.356C32.7239 15.358 32.7237 15.3602 32.724 15.3623C32.7244 15.3644 32.7252 15.3664 32.7264 15.3682C32.7277 15.3699 32.7293 15.3713 32.7312 15.3722C32.7331 15.3732 32.7353 15.3736 32.7374 15.3736L37.7841 15.3731C37.7863 15.3731 37.7885 15.3726 37.7904 15.3717C37.7924 15.3707 37.7941 15.3693 37.7954 15.3676C37.7967 15.3659 37.7975 15.3639 37.7979 15.3617C37.7982 15.3596 37.7981 15.3575 37.7974 15.3554C36.9709 12.9724 33.5415 12.9812 32.7246 15.356Z" fill="#26478D"/>
<path d="M41.6573 12.9107C41.6576 12.9128 41.6585 12.9147 41.6598 12.9163C41.6611 12.918 41.6629 12.9193 41.6648 12.9201C41.6668 12.9209 41.6689 12.9212 41.671 12.9211C41.6732 12.9209 41.6752 12.9202 41.677 12.919C42.2585 12.5122 42.9076 12.3063 43.6244 12.3011C43.9372 12.299 44.1626 12.4218 44.3007 12.6694C44.4775 12.9875 44.2789 13.3984 43.9418 13.5317C43.7634 13.6023 43.5035 13.5982 43.2916 13.6127C43.1553 13.622 42.987 13.6587 42.7868 13.7227C41.9347 13.9956 41.6594 14.6514 41.6583 15.4815C41.6569 16.7527 41.6576 18.0238 41.6605 19.295C41.6621 20.0037 40.6668 20.2361 40.3968 19.5736C40.3652 19.4968 40.3494 19.3697 40.3494 19.1922C40.3494 17.1916 40.3492 15.1912 40.3489 13.1909C40.3489 12.9577 40.372 12.7933 40.4181 12.6975C40.6977 12.1138 41.5577 12.2959 41.6573 12.9107Z" fill="#26478D"/>
<path d="M54.6315 19.089C53.766 19.8043 52.7863 20.1242 51.6925 20.0488C49.6088 19.9051 47.9958 18.1893 48.0027 16.156C48.0102 13.952 49.9214 12.1833 52.2107 12.3011C53.1117 12.3472 53.9403 12.6855 54.6337 13.2583C54.6557 13.2767 54.6665 13.2716 54.6661 13.2433C54.6645 13.0814 54.6496 12.8993 54.7082 12.7566C54.9734 12.1065 55.9596 12.2746 55.9623 12.9652C55.9712 15.0879 55.9744 17.2108 55.9719 19.3339C55.9708 20.163 54.7125 20.22 54.6768 19.3728C54.6732 19.2825 54.6681 19.1921 54.6614 19.1014C54.6599 19.0779 54.65 19.0738 54.6315 19.089ZM54.6693 16.1643C54.6693 15.4748 54.3882 14.8135 53.8878 14.3259C53.3873 13.8383 52.7086 13.5644 52.0009 13.5644C51.2932 13.5644 50.6144 13.8383 50.114 14.3259C49.6136 14.8135 49.3324 15.4748 49.3324 16.1643C49.3324 16.8538 49.6136 17.5151 50.114 18.0027C50.6144 18.4903 51.2932 18.7642 52.0009 18.7642C52.7086 18.7642 53.3873 18.4903 53.8878 18.0027C54.3882 17.5151 54.6693 16.8538 54.6693 16.1643Z" fill="#26478D"/>
<path d="M58.5746 12.9148C58.5748 12.9168 58.5756 12.9187 58.5768 12.9203C58.5781 12.9219 58.5797 12.9232 58.5816 12.924C58.5835 12.9247 58.5856 12.925 58.5876 12.9248C58.5896 12.9246 58.5916 12.9238 58.5932 12.9226C60.2914 11.6893 62.7756 12.3498 63.7038 14.1341C63.9541 14.6156 63.9962 15.0799 63.9967 15.6823C63.9974 16.878 63.9978 18.0736 63.9978 19.269C63.9978 20.2185 62.6904 20.1951 62.6894 19.3536C62.688 18.0976 62.6878 16.8415 62.6888 15.5853C62.6894 14.7774 62.2011 14.063 61.4656 13.7315C60.9262 13.4887 60.2637 13.4949 59.703 13.6843C58.8797 13.9624 58.5655 14.6944 58.5693 15.4945C58.5742 16.7615 58.5792 18.0283 58.5842 19.2949C58.5879 20.1889 57.271 20.2122 57.2704 19.3468C57.269 17.2812 57.2683 15.2155 57.2683 13.1499C57.2683 12.8204 57.3003 12.6144 57.5777 12.4416C57.9973 12.1807 58.5048 12.4588 58.5746 12.9148Z" fill="#26478D"/>
<path d="M46.276 12.3452L46.2526 12.3452C45.8979 12.3458 45.6109 12.6264 45.6115 12.972L45.6229 19.3568C45.6235 19.7023 45.9116 19.982 46.2662 19.9814L46.2897 19.9814C46.6444 19.9808 46.9314 19.7001 46.9308 19.3546L46.9193 12.9698C46.9187 12.6242 46.6307 12.3446 46.276 12.3452Z" fill="#26478D"/>
<path d="M18.5995 14.9814C18.6007 14.9831 18.6022 14.9845 18.604 14.9855C18.6058 14.9864 18.6079 14.987 18.6099 14.987C18.612 14.987 18.6141 14.9864 18.6159 14.9855C18.6177 14.9845 18.6192 14.9831 18.6203 14.9814C19.0967 14.2595 19.5716 13.5386 20.0448 12.8188C20.1492 12.6597 20.241 12.5556 20.3201 12.5065C20.7898 12.2149 21.4411 12.5636 21.3564 13.126C21.3443 13.2066 21.2994 13.3067 21.2217 13.4264C20.627 14.3392 20.0317 15.2515 19.4356 16.1633C19.4257 16.1778 19.4255 16.1925 19.4351 16.2074C20.0233 17.1119 20.6127 18.0151 21.203 18.9172C21.2975 19.0615 21.3498 19.1839 21.3601 19.2846C21.4145 19.8299 20.7973 20.1604 20.3404 19.8657C20.2637 19.8162 20.1708 19.7097 20.0619 19.5461C19.5886 18.8346 19.1156 18.1232 18.6427 17.4121C18.6415 17.4104 18.6399 17.409 18.6381 17.408C18.6363 17.407 18.6343 17.4065 18.6322 17.4064C18.6302 17.4064 18.6281 17.4068 18.6263 17.4077C18.6246 17.4086 18.623 17.4099 18.6219 17.4116C18.1121 18.1632 17.6011 18.9153 17.0888 19.668C16.7022 20.2361 15.7628 19.9502 15.8864 19.2322C15.8998 19.1543 15.9504 19.0485 16.0381 18.9146C16.6285 18.0108 17.2184 17.107 17.8077 16.2032C17.8151 16.1918 17.8151 16.1804 17.8077 16.169C17.218 15.2662 16.628 14.3622 16.0376 13.457C15.9428 13.3117 15.8908 13.1886 15.8816 13.0876C15.8166 12.4033 16.7565 12.1553 17.1159 12.7078C17.6098 13.4677 18.1043 14.2256 18.5995 14.9814Z" fill="#26478D"/>
<path d="M3.99568 17.0894H2.30865C1.80838 17.0894 1.40283 17.4845 1.40283 17.9719V19.6125C1.40283 20.0999 1.80838 20.495 2.30865 20.495H3.99568C4.49595 20.495 4.90149 20.0999 4.90149 19.6125V17.9719C4.90149 17.4845 4.49595 17.0894 3.99568 17.0894Z" fill="#982881"/>
<path d="M65.2576 18.8031L65.011 18.8021C64.9876 18.8019 64.9652 18.7928 64.9487 18.7767C64.9321 18.7606 64.9228 18.7387 64.9227 18.7159L64.9221 18.6884C64.9218 18.6175 64.9578 18.5821 65.0302 18.5821H65.755C65.8278 18.5821 65.8634 18.6173 65.862 18.6879L65.8615 18.717C65.8611 18.7395 65.8516 18.761 65.835 18.7769C65.8185 18.7927 65.7963 18.8015 65.7731 18.8015L65.5345 18.8031C65.5143 18.8031 65.5042 18.813 65.5042 18.8327V19.8823C65.5042 19.957 65.4658 19.9917 65.3891 19.9866L65.3625 19.9845C65.3407 19.983 65.3202 19.9736 65.3053 19.9581C65.2903 19.9426 65.2821 19.9221 65.2821 19.9009L65.281 18.8259C65.281 18.8107 65.2732 18.8031 65.2576 18.8031Z" fill="#26478D"/>
<path d="M67.0665 19.089C67.0661 19.0502 67.0596 19.0492 67.0468 19.0858L66.7416 19.9585C66.7363 19.9741 66.7253 19.9831 66.7086 19.9855C66.6383 19.9962 66.5899 19.9653 66.5632 19.8926C66.4631 19.6187 66.3749 19.3672 66.2986 19.1382C66.2673 19.0449 66.2517 19.0473 66.2517 19.1455L66.2506 19.9004C66.2506 19.9216 66.2424 19.9419 66.2277 19.9575C66.2131 19.973 66.1929 19.9827 66.1713 19.9845L66.1463 19.9865C66.0678 19.9931 66.0284 19.958 66.0281 19.8812C66.0266 19.4893 66.0257 19.1144 66.0254 18.7564C66.0254 18.5271 66.2853 18.5343 66.3603 18.746C66.458 19.0213 66.5529 19.2922 66.6452 19.5585C66.6541 19.5838 66.6632 19.5838 66.6724 19.5585C66.7729 19.2742 66.8735 18.9873 66.9743 18.6978C67.0356 18.5208 67.2992 18.5618 67.2965 18.7631C67.2923 19.1384 67.2898 19.5125 67.2891 19.8854C67.2887 19.9611 67.2498 19.9948 67.1724 19.9865L67.1469 19.9839C67.1255 19.9817 67.1056 19.9718 67.0912 19.9562C67.0768 19.9406 67.0687 19.9204 67.0686 19.8994L67.0665 19.089Z" fill="#26478D"/>
<path d="M8.54436 21.6434L6.52611 21.64C5.93055 21.6389 5.44691 22.1085 5.44587 22.6888L5.44235 24.652C5.44132 25.2323 5.92327 25.7035 6.51883 25.7045L8.53708 25.7079C9.13264 25.7089 9.61627 25.2394 9.61731 24.6591L9.62083 22.6959C9.62187 22.1156 9.13992 21.6444 8.54436 21.6434Z" fill="#BA2F7D"/>
</svg>
