<svg width="68" height="22" viewBox="0 0 68 22" fill="none" xmlns="http://www.w3.org/2000/svg">
<path d="M10.6265 0.504537L8.1641 0.512911C7.42855 0.515413 6.83436 1.09839 6.83692 1.81504L6.84551 4.21204C6.84808 4.92868 7.44644 5.50761 8.18199 5.50511L10.6443 5.49673C11.3799 5.49423 11.9741 4.91125 11.9715 4.1946L11.9629 1.7976C11.9604 1.08096 11.362 0.502035 10.6265 0.504537Z" fill="#406EB3"/>
<path d="M15.8716 3.69785L14.5041 3.70017C14.0906 3.70088 13.756 4.02805 13.7567 4.43093L13.7591 5.76329C13.7598 6.16617 14.0956 6.4922 14.5091 6.4915L15.8766 6.48917C16.2901 6.48847 16.6247 6.1613 16.624 5.75842L16.6216 4.42605C16.6209 4.02317 16.2851 3.69714 15.8716 3.69785Z" fill="#BA2F7D"/>
<path d="M4.26283 5.28145H1.49479C0.669239 5.28145 0 5.93349 0 6.73782V9.43057C0 10.2349 0.669239 10.8869 1.49479 10.8869H4.26283C5.08838 10.8869 5.75762 10.2349 5.75762 9.43057V6.73782C5.75762 5.93349 5.08838 5.28145 4.26283 5.28145Z" fill="#632678"/>
<path d="M46.2536 7.3894C46.6947 7.39465 47.0566 7.05537 47.0619 6.63161C47.0673 6.20784 46.714 5.86005 46.2728 5.8548C45.8317 5.84955 45.4698 6.18882 45.4645 6.61259C45.4592 7.03636 45.8125 7.38415 46.2536 7.3894Z" fill="#26478D"/>
<path d="M23.6885 15.0802C23.6857 16.1206 23.6853 17.1609 23.6874 18.201C23.6878 18.3871 23.6677 18.5221 23.6273 18.6062C23.3823 19.1131 22.6522 19.0877 22.4312 18.5797C22.3971 18.5015 22.3801 18.376 22.3801 18.203C22.3801 15.1454 22.3773 12.0877 22.3716 9.03005C22.37 8.29175 23.4004 8.06242 23.6518 8.76026C23.7002 8.89567 23.6896 9.07208 23.6864 9.22565C23.686 9.24467 23.6942 9.249 23.7109 9.23862C23.762 9.20542 23.8108 9.17065 23.8573 9.13433C25.4416 7.90677 27.6915 8.00224 29.1314 9.35328C30.6171 10.7474 30.7583 13.0458 29.4578 14.6028C28.0104 16.3358 25.4442 16.4899 23.7125 15.0698C23.6965 15.057 23.6885 15.0605 23.6885 15.0802ZM29.0036 12.1617C29.0036 11.4718 28.7223 10.8101 28.2216 10.3222C27.7208 9.83438 27.0417 9.5603 26.3335 9.5603C25.6254 9.5603 24.9463 9.83438 24.4455 10.3222C23.9448 10.8101 23.6635 11.4718 23.6635 12.1617C23.6635 12.8517 23.9448 13.5134 24.4455 14.0012C24.9463 14.4891 25.6254 14.7632 26.3335 14.7632C27.0417 14.7632 27.7208 14.4891 28.2216 14.0012C28.7223 13.5134 29.0036 12.8517 29.0036 12.1617Z" fill="#26478D"/>
<path d="M8.92351 12.6686C8.9201 12.6687 8.91673 12.6694 8.91366 12.6708C8.91058 12.6722 8.90787 12.6743 8.90573 12.6768C8.90358 12.6794 8.90206 12.6823 8.90127 12.6855C8.90047 12.6886 8.90043 12.6919 8.90115 12.6951C9.19989 14.1359 10.5466 14.9645 12.0196 14.744C12.5599 14.663 13.0383 14.4128 13.4547 13.9932C13.5392 13.9078 13.647 13.8576 13.778 13.8428C14.2594 13.7888 14.6604 14.2672 14.474 14.7056C14.431 14.8062 14.3362 14.9219 14.1896 15.0527C11.8955 17.099 8.17585 15.8584 7.59061 12.9089C7.25512 11.219 8.1013 9.51102 9.67543 8.72447C11.855 7.63595 14.6098 8.70735 15.3441 11.0011C15.4485 11.3269 15.4977 11.6386 15.4916 11.9361C15.4852 12.2387 15.3473 12.463 15.0779 12.609C15.0047 12.6484 14.9144 12.6683 14.8068 12.6686C12.8425 12.6697 10.8814 12.6697 8.92351 12.6686ZM9.08806 11.0639C9.03836 11.1625 9.00091 11.2566 8.9757 11.3461C8.97073 11.3645 8.97783 11.3736 8.997 11.3736L14.0304 11.3731C14.0321 11.3731 14.0338 11.3727 14.0354 11.3719C14.0369 11.3712 14.0383 11.3701 14.0393 11.3687C14.0403 11.3673 14.041 11.3658 14.0413 11.3641C14.0416 11.3624 14.0415 11.3607 14.041 11.3591C13.2609 9.08817 10.1456 8.96624 9.08806 11.0639Z" fill="#26478D"/>
<path d="M32.6953 12.6686C32.6886 12.6686 32.6819 12.6702 32.6759 12.6731C32.6698 12.676 32.6646 12.6802 32.6604 12.6854C32.6563 12.6906 32.6535 12.6967 32.6522 12.7031C32.6508 12.7096 32.651 12.7162 32.6527 12.7226C32.8029 13.3026 33.0841 13.7722 33.4962 14.1312C34.443 14.9551 36.0869 15.0355 37.0428 14.1582C37.2072 14.007 37.3181 13.9185 37.3756 13.8925C37.8634 13.6715 38.3954 14.1577 38.2458 14.6438C38.2071 14.769 38.1128 14.9001 37.963 15.0371C36.2472 16.6081 33.4568 16.3119 32.0632 14.4996C30.2921 12.1954 31.6457 8.87748 34.5352 8.35761C36.5316 7.99858 38.5909 9.18878 39.1367 11.1318C39.2789 11.6372 39.3721 12.2997 38.8422 12.61C38.7758 12.6491 38.6951 12.6686 38.5999 12.6686C36.6214 12.6693 34.6532 12.6693 32.6953 12.6686ZM32.7246 11.356C32.7239 11.358 32.7237 11.3602 32.724 11.3623C32.7244 11.3644 32.7252 11.3664 32.7264 11.3682C32.7277 11.3699 32.7293 11.3713 32.7312 11.3722C32.7331 11.3732 32.7353 11.3736 32.7374 11.3736L37.7841 11.3731C37.7863 11.3731 37.7885 11.3726 37.7904 11.3717C37.7924 11.3707 37.7941 11.3693 37.7954 11.3676C37.7967 11.3659 37.7975 11.3639 37.7979 11.3617C37.7982 11.3596 37.7981 11.3575 37.7974 11.3554C36.9709 8.97243 33.5415 8.98125 32.7246 11.356Z" fill="#26478D"/>
<path d="M41.6573 8.9107C41.6576 8.91276 41.6585 8.91469 41.6598 8.91633C41.6611 8.91796 41.6629 8.91925 41.6648 8.92008C41.6668 8.92091 41.6689 8.92124 41.671 8.92105C41.6732 8.92086 41.6752 8.92016 41.677 8.91901C42.2585 8.51224 42.9076 8.30626 43.6244 8.30107C43.9372 8.299 44.1626 8.42179 44.3007 8.66945C44.4775 8.98749 44.2789 9.39841 43.9418 9.53175C43.7634 9.60231 43.5035 9.59816 43.2916 9.61269C43.1553 9.62203 42.987 9.65869 42.7868 9.72268C41.9347 9.99559 41.6594 10.6514 41.6583 11.4815C41.6569 12.7527 41.6576 14.0238 41.6605 15.295C41.6621 16.0037 40.6668 16.2361 40.3968 15.5736C40.3652 15.4968 40.3494 15.3697 40.3494 15.1922C40.3494 13.1916 40.3492 11.1912 40.3489 9.19088C40.3489 8.95775 40.372 8.79328 40.4181 8.69746C40.6977 8.11377 41.5577 8.29589 41.6573 8.9107Z" fill="#26478D"/>
<path d="M54.6315 15.089C53.766 15.8043 52.7863 16.1242 51.6925 16.0488C49.6088 15.9051 47.9958 14.1893 48.0027 12.156C48.0102 9.952 49.9214 8.18329 52.2107 8.30107C53.1117 8.34725 53.9403 8.68552 54.6337 9.25832C54.6557 9.27665 54.6665 9.27164 54.6661 9.24327C54.6645 9.0814 54.6496 8.89928 54.7082 8.75661C54.9734 8.10651 55.9596 8.27461 55.9623 8.96518C55.9712 11.0879 55.9744 13.2108 55.9719 15.3339C55.9708 16.163 54.7125 16.22 54.6768 15.3728C54.6732 15.2825 54.6681 15.1921 54.6614 15.1014C54.6599 15.0779 54.65 15.0738 54.6315 15.089ZM54.6693 12.1643C54.6693 11.4748 54.3882 10.8135 53.8878 10.3259C53.3873 9.83835 52.7086 9.56443 52.0009 9.56443C51.2932 9.56443 50.6144 9.83835 50.114 10.3259C49.6136 10.8135 49.3324 11.4748 49.3324 12.1643C49.3324 12.8538 49.6136 13.5151 50.114 14.0027C50.6144 14.4903 51.2932 14.7642 52.0009 14.7642C52.7086 14.7642 53.3873 14.4903 53.8878 14.0027C54.3882 13.5151 54.6693 12.8538 54.6693 12.1643Z" fill="#26478D"/>
<path d="M58.5746 8.91482C58.5748 8.91681 58.5756 8.9187 58.5768 8.9203C58.5781 8.9219 58.5797 8.92316 58.5816 8.92395C58.5835 8.92474 58.5856 8.92503 58.5876 8.92479C58.5896 8.92456 58.5916 8.9238 58.5932 8.92261C60.2914 7.68934 62.7756 8.34981 63.7038 10.1341C63.9541 10.6156 63.9962 11.0799 63.9967 11.6823C63.9974 12.878 63.9978 14.0736 63.9978 15.269C63.9978 16.2185 62.6904 16.1951 62.6894 15.3536C62.688 14.0976 62.6878 12.8415 62.6888 11.5853C62.6894 10.7774 62.2011 10.063 61.4656 9.73147C60.9262 9.48865 60.2637 9.49488 59.703 9.68426C58.8797 9.96235 58.5655 10.6944 58.5693 11.4945C58.5742 12.7615 58.5792 14.0283 58.5842 15.2949C58.5879 16.1889 57.271 16.2122 57.2704 15.3468C57.269 13.2812 57.2683 11.2155 57.2683 9.14986C57.2683 8.8204 57.3003 8.61442 57.5777 8.44165C57.9973 8.18067 58.5048 8.45877 58.5746 8.91482Z" fill="#26478D"/>
<path d="M46.276 8.34517L46.2526 8.34521C45.8979 8.34581 45.6109 8.62644 45.6115 8.97201L45.6229 15.3568C45.6235 15.7023 45.9116 15.982 46.2662 15.9814L46.2897 15.9814C46.6444 15.9808 46.9314 15.7001 46.9308 15.3546L46.9193 8.96979C46.9187 8.62422 46.6307 8.34456 46.276 8.34517Z" fill="#26478D"/>
<path d="M18.5995 10.9814C18.6007 10.9831 18.6022 10.9845 18.604 10.9855C18.6058 10.9864 18.6079 10.987 18.6099 10.987C18.612 10.987 18.6141 10.9864 18.6159 10.9855C18.6177 10.9845 18.6192 10.9831 18.6203 10.9814C19.0967 10.2595 19.5716 9.53865 20.0448 8.81885C20.1492 8.65974 20.241 8.55563 20.3201 8.50651C20.7898 8.21493 21.4411 8.56358 21.3564 9.126C21.3443 9.20659 21.2994 9.30673 21.2217 9.4264C20.627 10.3392 20.0317 11.2515 19.4356 12.1633C19.4257 12.1778 19.4255 12.1925 19.4351 12.2074C20.0233 13.1119 20.6127 14.0151 21.203 14.9172C21.2975 15.0615 21.3498 15.1839 21.3601 15.2846C21.4145 15.8299 20.7973 16.1604 20.3404 15.8657C20.2637 15.8162 20.1708 15.7097 20.0619 15.5461C19.5886 14.8346 19.1156 14.1232 18.6427 13.4121C18.6415 13.4104 18.6399 13.409 18.6381 13.408C18.6363 13.407 18.6343 13.4065 18.6322 13.4064C18.6302 13.4064 18.6281 13.4068 18.6263 13.4077C18.6246 13.4086 18.623 13.4099 18.6219 13.4116C18.1121 14.1632 17.6011 14.9153 17.0888 15.668C16.7022 16.2361 15.7628 15.9502 15.8864 15.2322C15.8998 15.1543 15.9504 15.0485 16.0381 14.9146C16.6285 14.0108 17.2184 13.107 17.8077 12.2032C17.8151 12.1918 17.8151 12.1804 17.8077 12.169C17.218 11.2662 16.628 10.3622 16.0376 9.45702C15.9428 9.31174 15.8908 9.18861 15.8816 9.08761C15.8166 8.40326 16.7565 8.15526 17.1159 8.70782C17.6098 9.46774 18.1043 10.2256 18.5995 10.9814Z" fill="#26478D"/>
<path d="M3.99568 13.0894H2.30865C1.80838 13.0894 1.40283 13.4845 1.40283 13.9719V15.6125C1.40283 16.0999 1.80838 16.495 2.30865 16.495H3.99568C4.49595 16.495 4.90149 16.0999 4.90149 15.6125V13.9719C4.90149 13.4845 4.49595 13.0894 3.99568 13.0894Z" fill="#982881"/>
<path d="M65.2576 14.8031L65.011 14.8021C64.9876 14.8019 64.9652 14.7928 64.9487 14.7767C64.9321 14.7606 64.9228 14.7387 64.9227 14.7159L64.9221 14.6884C64.9218 14.6175 64.9578 14.5821 65.0302 14.5821H65.755C65.8278 14.5821 65.8634 14.6173 65.862 14.6879L65.8615 14.717C65.8611 14.7395 65.8516 14.761 65.835 14.7769C65.8185 14.7927 65.7963 14.8015 65.7731 14.8015L65.5345 14.8031C65.5143 14.8031 65.5042 14.813 65.5042 14.8327V15.8823C65.5042 15.957 65.4658 15.9917 65.3891 15.9866L65.3625 15.9845C65.3407 15.983 65.3202 15.9736 65.3053 15.9581C65.2903 15.9426 65.2821 15.9221 65.2821 15.9009L65.281 14.8259C65.281 14.8107 65.2732 14.8031 65.2576 14.8031Z" fill="#26478D"/>
<path d="M67.0665 15.089C67.0661 15.0502 67.0596 15.0492 67.0468 15.0858L66.7416 15.9585C66.7363 15.9741 66.7253 15.9831 66.7086 15.9855C66.6383 15.9962 66.5899 15.9653 66.5632 15.8926C66.4631 15.6187 66.3749 15.3672 66.2986 15.1382C66.2673 15.0449 66.2517 15.0473 66.2517 15.1455L66.2506 15.9004C66.2506 15.9216 66.2424 15.9419 66.2277 15.9575C66.2131 15.973 66.1929 15.9827 66.1713 15.9845L66.1463 15.9865C66.0678 15.9931 66.0284 15.958 66.0281 15.8812C66.0266 15.4893 66.0257 15.1144 66.0254 14.7564C66.0254 14.5271 66.2853 14.5343 66.3603 14.746C66.458 15.0213 66.5529 15.2922 66.6452 15.5585C66.6541 15.5838 66.6632 15.5838 66.6724 15.5585C66.7729 15.2742 66.8735 14.9873 66.9743 14.6978C67.0356 14.5208 67.2992 14.5618 67.2965 14.7631C67.2923 15.1384 67.2898 15.5125 67.2891 15.8854C67.2887 15.9611 67.2498 15.9948 67.1724 15.9865L67.1469 15.9839C67.1255 15.9817 67.1056 15.9718 67.0912 15.9562C67.0768 15.9406 67.0687 15.9204 67.0686 15.8994L67.0665 15.089Z" fill="#26478D"/>
<path d="M8.54436 17.6434L6.52611 17.64C5.93055 17.6389 5.44691 18.1085 5.44587 18.6888L5.44235 20.652C5.44132 21.2323 5.92327 21.7035 6.51883 21.7045L8.53708 21.7079C9.13264 21.7089 9.61627 21.2394 9.61731 20.6591L9.62083 18.6959C9.62187 18.1156 9.13992 17.6444 8.54436 17.6434Z" fill="#BA2F7D"/>
</svg>
