<svg width="61" height="20" viewBox="0 0 61 20" fill="none" xmlns="http://www.w3.org/2000/svg">
  <path d="M13.1418 7.18095C13.2338 6.89924 13.2926 6.64134 13.3182 6.40726C13.331 6.29294 13.3118 6.17182 13.2607 6.04389C13.2057 5.90507 13.1488 5.76898 13.09 5.63561C13.0644 5.57845 13.0293 5.52877 12.9845 5.48658C12.5837 5.09259 12.4437 4.62919 11.8704 4.35768C11.8192 4.33319 11.777 4.29644 11.7438 4.24745C11.5814 4.00656 11.3654 3.86706 11.0956 3.82896C11.0573 3.82351 11.0477 3.80242 11.0669 3.76567C11.0758 3.74798 11.0854 3.72825 11.0956 3.70647C11.1033 3.68875 11.1043 3.66861 11.0987 3.65007C11.093 3.63154 11.0809 3.61596 11.0649 3.60644L9.20674 2.52858C9.16583 2.50408 9.12108 2.5068 9.0725 2.53674C9.05205 2.55035 9.02904 2.57553 9.00347 2.61228C8.97406 2.65174 8.94914 2.64902 8.92868 2.60411C8.8443 2.42447 8.27668 2.35914 8.06382 2.21012C8.00885 2.17065 7.95068 2.16589 7.88931 2.19583L7.30251 2.48571C7.27251 2.50032 7.24774 2.52384 7.23156 2.55308C7.06536 2.86065 6.85186 3.08861 6.59106 3.23695C8.02547 -0.439634 12.9615 -0.0313514 13.8321 3.84325C14.0929 5.00141 13.8628 6.11398 13.1418 7.18095Z" fill="#EF4C30"/>
  <path d="M13.1406 7.18095C12.9949 7.44089 12.7711 7.69947 12.4694 7.95669C12.3454 7.90361 12.2061 7.94104 12.0514 8.06897C11.9964 8.11388 11.9446 8.10912 11.8961 8.05468L11.6468 7.77092C11.5969 7.7124 11.5733 7.64367 11.5758 7.56474C11.5848 7.33338 11.4914 7.15918 11.2958 7.04214C11.2268 7.00131 11.1699 7.01424 11.1252 7.08092C11.0945 7.12583 11.0548 7.12856 11.0063 7.08909C11.0023 7.08561 10.9992 7.08116 10.9971 7.07617C10.9951 7.07117 10.9942 7.06578 10.9946 7.0605C10.995 7.05521 10.9966 7.0502 10.9993 7.04592C11.002 7.04164 11.0057 7.03824 11.0101 7.03601L11.1194 6.97477C11.1356 6.96599 11.148 6.95093 11.1541 6.9327C11.1601 6.91447 11.1594 6.89445 11.152 6.87678C11.1328 6.83323 11.0983 6.8101 11.0485 6.80737C11.028 6.80465 11.0088 6.8101 10.9909 6.82371C10.9679 6.84004 10.9532 6.86113 10.9468 6.88699C10.9366 6.92782 10.9117 6.95231 10.872 6.96048C10.8477 6.96592 10.8305 6.95231 10.8203 6.91965C10.8062 6.87066 10.8209 6.83459 10.8644 6.81146C10.8823 6.80193 10.8982 6.79036 10.9123 6.77675C10.9609 6.72912 10.9609 6.68149 10.9123 6.63385C10.8573 6.58078 10.7889 6.55288 10.7071 6.55016C10.6873 6.54941 10.6678 6.54437 10.6499 6.53532C10.6319 6.52628 10.6159 6.51343 10.6028 6.49757C10.5897 6.4817 10.5798 6.46316 10.5736 6.44306C10.5675 6.42297 10.5653 6.40176 10.5671 6.38072L10.5786 6.23986C10.5791 6.22758 10.5759 6.21545 10.5696 6.20516C10.5633 6.19487 10.5541 6.18693 10.5434 6.18244C10.5326 6.17795 10.5208 6.17714 10.5096 6.18011C10.4984 6.18308 10.4883 6.1897 10.4808 6.19903C10.4374 6.25483 10.3856 6.28681 10.3255 6.29498C10.2513 6.30315 10.2411 6.27933 10.2948 6.22353L10.3447 6.17045C10.3907 6.12282 10.3913 6.07451 10.3466 6.02551L9.93046 5.57436C9.92376 5.56704 9.91554 5.5615 9.90646 5.55818C9.89738 5.55486 9.88769 5.55385 9.87818 5.55524C9.86866 5.55663 9.85959 5.56038 9.85168 5.56618C9.84378 5.57198 9.83727 5.57968 9.83266 5.58865C9.81732 5.61723 9.80582 5.64581 9.79815 5.67439C9.77641 5.76421 9.73806 5.77374 9.68309 5.70297C9.64473 5.65262 9.64409 5.5975 9.68117 5.53762C9.72847 5.4614 9.71057 5.41241 9.62747 5.39063C9.54054 5.36886 9.44913 5.35049 9.35325 5.33552C9.35339 5.3362 9.34707 5.33317 9.33563 5.32708C9.32418 5.32099 9.3085 5.3123 9.29189 5.30285C9.27143 5.29061 9.26312 5.27223 9.26696 5.24774C9.27718 5.19602 9.25865 5.16064 9.21134 5.14158C9.12697 5.10892 9.07008 5.11845 9.04067 5.17016C8.99721 5.24501 8.94543 5.2525 8.88534 5.19262L8.42894 4.74555C8.3842 4.70064 8.34457 4.70472 8.31005 4.7578C8.28959 4.78774 8.26722 4.81224 8.24293 4.83129C8.19818 4.86395 8.15919 4.85783 8.12595 4.81292C8.01089 4.65096 7.86387 4.54413 7.68489 4.49241C7.61841 4.47336 7.56408 4.43594 7.52189 4.38014C7.45669 4.29576 7.38638 4.28691 7.31095 4.3536C7.2905 4.37265 7.26812 4.37605 7.24383 4.3638L6.74716 4.11475C6.6858 4.08345 6.63338 4.07597 6.58991 4.0923C6.52344 4.11952 6.44993 4.13108 6.36938 4.127L6.58991 3.23695C6.85072 3.0886 7.06421 2.86065 7.23041 2.55307C7.24659 2.52384 7.27136 2.50032 7.30136 2.48571L7.88816 2.19583C7.94953 2.16589 8.0077 2.17065 8.06267 2.21012C8.27553 2.35914 8.84315 2.42446 8.92753 2.60411C8.94799 2.64902 8.97292 2.65174 9.00232 2.61227C9.02789 2.57553 9.0509 2.55035 9.07136 2.53674C9.11994 2.5068 9.16468 2.50408 9.20559 2.52858L11.0638 3.60644C11.0798 3.61596 11.0918 3.63153 11.0975 3.65007C11.1032 3.66861 11.1021 3.68874 11.0945 3.70647C11.0842 3.72825 11.0747 3.74798 11.0657 3.76567C11.0465 3.80242 11.0561 3.82351 11.0945 3.82896C11.3642 3.86706 11.5803 4.00656 11.7426 4.24744C11.7759 4.29644 11.8181 4.33318 11.8692 4.35768C12.4426 4.62919 12.5826 5.09259 12.9834 5.48658C13.0281 5.52877 13.0633 5.57844 13.0888 5.6356C13.1476 5.76898 13.2045 5.90507 13.2595 6.04389C13.3106 6.17181 13.3298 6.29294 13.317 6.40726C13.2915 6.64134 13.2327 6.89924 13.1406 7.18095Z" fill="#EF4C30"/>
  <path d="M30.0093 4.12494L29.1234 4.12698C29.0293 4.12753 28.9387 4.08845 28.8713 4.01818C28.8038 3.94791 28.7649 3.85207 28.7629 3.75136L28.7609 3.65133C28.7546 3.33287 28.9009 3.16548 29.2001 3.14915C29.7025 3.12329 30.1468 3.12057 30.5329 3.14098C30.9279 3.16276 31.1235 3.38935 31.1197 3.82077C31.0851 7.81241 31.066 11.8041 31.0621 15.7957C31.0621 15.8651 31.0954 15.9005 31.1618 15.9018L32.113 15.908C32.2044 15.9089 32.2921 15.9469 32.3583 16.0144C32.4245 16.0818 32.4643 16.1737 32.4697 16.2713L32.4754 16.404C32.4786 16.4675 32.4696 16.5309 32.449 16.5905C32.4284 16.6501 32.3967 16.7045 32.3558 16.7506C32.3149 16.7966 32.2656 16.8333 32.211 16.8583C32.1564 16.8833 32.0976 16.8961 32.0382 16.896L29.2653 16.8981C29.2066 16.8981 29.1486 16.885 29.095 16.8597C29.0414 16.8343 28.9934 16.7972 28.9542 16.7508C28.915 16.7044 28.8853 16.6497 28.8672 16.5903C28.8491 16.5309 28.843 16.4682 28.8492 16.4061L28.8607 16.2754C28.8701 16.1763 28.9133 16.0843 28.9823 16.0169C29.0512 15.9496 29.141 15.9115 29.2346 15.91L29.9595 15.8998C30.063 15.8984 30.1148 15.8426 30.1148 15.7324L30.1129 4.23518C30.1129 4.16033 30.0784 4.12358 30.0093 4.12494Z" fill="#8C2481"/>
  <path d="M34.7671 15.7774L34.7652 4.23318C34.7652 4.15969 34.73 4.12294 34.6597 4.12294L33.8102 4.12702C33.7159 4.12745 33.6249 4.09032 33.5553 4.02302C33.4857 3.95571 33.4425 3.86313 33.4343 3.76365L33.4267 3.66771C33.396 3.30978 33.55 3.13081 33.8888 3.13081L35.2734 3.13694C35.391 3.13748 35.5037 3.18761 35.5867 3.27637C35.6697 3.36513 35.7163 3.48529 35.7163 3.61055V15.8121C35.7163 15.8733 35.7458 15.9039 35.8046 15.9039L36.7442 15.908C36.8443 15.9088 36.9405 15.9498 37.0134 16.0229C37.0863 16.096 37.1306 16.1957 37.1373 16.302L37.1431 16.3939C37.147 16.4583 37.1385 16.5229 37.118 16.5837C37.0975 16.6445 37.0655 16.7002 37.024 16.7473C36.9824 16.7944 36.9323 16.8319 36.8765 16.8575C36.8208 16.8831 36.7608 16.8962 36.7001 16.8961H33.9828C33.6683 16.8961 33.5098 16.728 33.5072 16.3918V16.3102C33.5067 16.2574 33.5161 16.205 33.5348 16.1561C33.5534 16.1072 33.5811 16.0627 33.616 16.0253C33.651 15.9879 33.6926 15.9582 33.7385 15.9381C33.7843 15.918 33.8335 15.9077 33.8831 15.908H34.6425C34.7256 15.908 34.7671 15.8645 34.7671 15.7774Z" fill="#8C2481"/>
  <path d="M12.4685 7.9567C11.6772 8.54598 10.7695 8.84948 9.74548 8.86717C8.56932 8.60178 7.65396 8.02406 6.9994 7.13401C6.98278 7.11087 6.9636 7.0959 6.94187 7.0891C6.92117 7.07298 6.83375 6.89919 6.82359 6.875C6.81734 6.86011 6.80863 6.84368 6.79613 6.81963C6.3653 5.96768 6.22275 5.07014 6.36849 4.12701C6.44903 4.13109 6.52254 4.11953 6.58902 4.09231C6.63249 4.07598 6.6849 4.08346 6.74627 4.11476L7.24294 4.36381C7.26723 4.37606 7.2896 4.37266 7.31006 4.35361C7.38549 4.28692 7.4558 4.29577 7.521 4.38015C7.56319 4.43594 7.61752 4.47337 7.684 4.49242C7.86298 4.54414 8.01 4.65097 8.12506 4.81293C8.1583 4.85784 8.19729 4.86396 8.24204 4.8313C8.26633 4.81224 8.2887 4.78775 8.30915 4.75781C8.34367 4.70473 8.3833 4.70065 8.42805 4.74556L8.88445 5.19263C8.94454 5.25251 8.99631 5.24502 9.03978 5.17017C9.06918 5.11846 9.12607 5.10893 9.21045 5.14159C9.25775 5.16065 9.27629 5.19603 9.26606 5.24775C9.26223 5.27224 9.27054 5.29061 9.29099 5.30286C9.30761 5.31231 9.32329 5.321 9.33473 5.32709C9.34618 5.33318 9.3525 5.33621 9.35236 5.33553C9.44824 5.3505 9.53965 5.36887 9.62658 5.39064C9.70968 5.41242 9.72758 5.46141 9.68028 5.53763C9.6432 5.59751 9.64384 5.65263 9.68219 5.70298C9.73717 5.77375 9.77552 5.76422 9.79725 5.6744C9.80492 5.64582 9.81643 5.61724 9.83177 5.58866C9.83637 5.57969 9.84289 5.57199 9.85079 5.56619C9.8587 5.56039 9.86777 5.55664 9.87728 5.55525C9.8868 5.55386 9.89648 5.55487 9.90556 5.55819C9.91465 5.56151 9.92287 5.56705 9.92957 5.57437L10.3457 6.02552C10.3904 6.07452 10.3898 6.12283 10.3438 6.17046L10.2939 6.22354C10.2402 6.27934 10.2505 6.30315 10.3246 6.29499C10.3847 6.28682 10.4365 6.25484 10.4799 6.19904C10.4875 6.18971 10.4975 6.18309 10.5087 6.18012C10.5199 6.17715 10.5317 6.17796 10.5425 6.18245C10.5532 6.18694 10.5624 6.19488 10.5687 6.20517C10.575 6.21546 10.5782 6.22759 10.5777 6.23987L10.5662 6.38073C10.5644 6.40177 10.5666 6.42298 10.5727 6.44307C10.5789 6.46317 10.5888 6.48171 10.6019 6.49758C10.615 6.51344 10.631 6.52629 10.649 6.53533C10.6669 6.54438 10.6864 6.54942 10.7062 6.55017C10.788 6.55289 10.8564 6.58079 10.9114 6.63386C10.96 6.6815 10.96 6.72913 10.9114 6.77676C10.8973 6.79037 10.8814 6.80194 10.8635 6.81147C10.82 6.8346 10.8053 6.87067 10.8194 6.91966C10.8296 6.95232 10.8468 6.96593 10.8711 6.96049C10.9108 6.95232 10.9357 6.92783 10.9459 6.887C10.9523 6.86114 10.967 6.84005 10.99 6.82371C11.0079 6.81011 11.0271 6.80466 11.0476 6.80738C11.0974 6.81011 11.1319 6.83324 11.1511 6.87679C11.1585 6.89446 11.1592 6.91447 11.1532 6.93271C11.1471 6.95094 11.1347 6.96599 11.1185 6.97478L11.0092 7.03602C11.0048 7.03824 11.0011 7.04165 10.9984 7.04593C10.9957 7.05021 10.9941 7.05522 10.9937 7.06051C10.9933 7.06579 10.9942 7.07118 10.9962 7.07618C10.9983 7.08117 11.0014 7.08562 11.0054 7.0891C11.054 7.12857 11.0936 7.12584 11.1243 7.08093C11.169 7.01425 11.2259 7.00132 11.2949 7.04215C11.4905 7.15919 11.5839 7.33339 11.5749 7.56475C11.5724 7.64368 11.596 7.71241 11.6459 7.77093L11.8952 8.05469C11.9437 8.10912 11.9955 8.11389 12.0505 8.06898C12.2052 7.94105 12.3445 7.90362 12.4685 7.9567Z" fill="#EF4C30"/>
  <path d="M25.8173 7.74233C26.2144 7.74233 26.5364 7.39959 26.5364 6.9768C26.5364 6.55401 26.2144 6.21127 25.8173 6.21127C25.4201 6.21127 25.0981 6.55401 25.0981 6.9768C25.0981 7.39959 25.4201 7.74233 25.8173 7.74233Z" fill="#8C2481"/>
  <path d="M39.742 7.74848C40.1423 7.74848 40.4668 7.40299 40.4668 6.97682C40.4668 6.55065 40.1423 6.20517 39.742 6.20517C39.3416 6.20517 39.0171 6.55065 39.0171 6.97682C39.0171 7.40299 39.3416 7.74848 39.742 7.74848Z" fill="#8C2481"/>
  <path d="M6.84705 7.01257C6.84705 6.85439 6.90213 7.07549 6.9456 7.0891C6.96733 7.0959 6.98651 7.11087 7.00313 7.13401C7.65769 8.02406 8.57304 8.60178 9.7492 8.86717C8.33973 9.79805 7.89675 10.8575 7.58034 12.4151C7.55861 12.5172 7.51514 12.5288 7.44994 12.4498C6.75575 11.6142 5.88642 11.1277 4.84193 10.9902C4.73838 10.9766 4.73071 10.9392 4.81892 10.878C6.11398 9.9879 6.77545 8.63481 6.84705 7.01257Z" fill="#F7A6A2"/>
  <path d="M15.7691 11.3842C14.4804 11.5462 13.4858 12.1491 12.7852 13.1929C12.8159 11.3863 12.1351 10.4574 10.9961 9.29993C10.9873 9.29088 10.9809 9.27946 10.9776 9.26691C10.9743 9.25437 10.9743 9.24117 10.9774 9.22876C10.9806 9.21635 10.9869 9.2052 10.9955 9.19651C11.0042 9.18783 11.015 9.18194 11.0267 9.17949C12.0175 8.94541 12.8325 8.41396 13.4718 7.58514C13.5855 7.4368 13.645 7.45858 13.6501 7.65047C13.6974 9.20739 14.4037 10.452 15.7691 11.3842Z" fill="#CC89BB"/>
  <path d="M50.2976 13.2708C50.296 13.7672 50.2025 14.2585 50.0225 14.7166C49.8425 15.1746 49.5796 15.5904 49.2486 15.9402C48.9177 16.2901 48.5253 16.5671 48.0938 16.7555C47.6622 16.9439 47.2001 17.04 46.7337 17.0382L45.9973 17.0355C45.531 17.0338 45.0695 16.9343 44.6392 16.7427C44.2089 16.5511 43.8183 16.2711 43.4897 15.9188C43.1611 15.5665 42.9008 15.1488 42.7239 14.6894C42.5469 14.2301 42.4566 13.7381 42.4583 13.2416L42.4607 12.5027C42.4623 12.0062 42.5558 11.5149 42.7358 11.0569C42.9158 10.5988 43.1787 10.183 43.5097 9.83318C43.8406 9.48333 44.233 9.20631 44.6645 9.01791C45.096 8.82951 45.5582 8.73344 46.0246 8.73518L46.7609 8.73791C47.2273 8.73965 47.6888 8.83915 48.1191 9.03075C48.5494 9.22235 48.94 9.50229 49.2686 9.85458C49.5972 10.2069 49.8574 10.6246 50.0344 11.084C50.2114 11.5433 50.3016 12.0353 50.3 12.5318L50.2976 13.2708ZM49.2556 12.5131C49.2556 11.7709 48.9786 11.059 48.4856 10.5341C47.9925 10.0092 47.3238 9.71436 46.6265 9.71436H46.1241C45.4268 9.71436 44.7581 10.0092 44.265 10.5341C43.772 11.059 43.495 11.7709 43.495 12.5131V13.2848C43.495 14.0271 43.772 14.7389 44.265 15.2638C44.7581 15.7887 45.4268 16.0836 46.1241 16.0836H46.6265C47.3238 16.0836 47.9925 15.7887 48.4856 15.2638C48.9786 14.7389 49.2556 14.0271 49.2556 13.2848V12.5131Z" fill="#8C2481"/>
  <path d="M53.4264 10.4084C54.0554 8.9488 55.6394 8.48336 57.0067 8.77937C58.7402 9.15499 59.3213 10.6779 59.3424 12.3947C59.3552 13.5175 59.3577 14.6409 59.35 15.7651C59.3498 15.7842 59.3531 15.8032 59.3599 15.8209C59.3666 15.8386 59.3766 15.8547 59.3893 15.8682C59.402 15.8817 59.4172 15.8924 59.4338 15.8995C59.4504 15.9067 59.4682 15.9103 59.4862 15.91L60.2571 15.908C60.3082 15.9077 60.3588 15.9184 60.406 15.9394C60.4531 15.9604 60.4959 15.9914 60.5316 16.0304C60.5674 16.0694 60.5955 16.1157 60.6142 16.1666C60.6329 16.2175 60.6419 16.2718 60.6406 16.3265L60.6349 16.4898C60.6285 16.7606 60.4981 16.896 60.2437 16.896L58.8208 16.894C58.7616 16.894 58.703 16.8816 58.6483 16.8575C58.5936 16.8333 58.544 16.798 58.5021 16.7535C58.4603 16.7089 58.4271 16.656 58.4044 16.5978C58.3818 16.5396 58.3701 16.4772 58.3701 16.4142C58.3676 15.1812 58.3701 13.9264 58.3778 12.6499C58.3874 10.978 57.6817 9.747 55.9788 9.77149C52.7552 9.81436 53.3766 13.4848 53.342 15.7814C53.3408 15.8603 53.3766 15.9005 53.4494 15.9019L54.3105 15.9121C54.4033 15.9132 54.4924 15.9509 54.5602 16.0178C54.628 16.0847 54.6695 16.1758 54.6767 16.2734L54.6863 16.3897C54.7119 16.7273 54.5661 16.896 54.2491 16.896H51.526C51.2333 16.896 51.0779 16.7409 51.06 16.4306L51.0581 16.3775C51.0547 16.3171 51.063 16.2567 51.0823 16.1998C51.1017 16.143 51.1318 16.0909 51.1708 16.047C51.2098 16.003 51.2568 15.9679 51.309 15.944C51.3612 15.9201 51.4174 15.9079 51.4742 15.908H52.3295C52.3489 15.908 52.3674 15.8998 52.381 15.8853C52.3947 15.8707 52.4024 15.851 52.4024 15.8304L52.4081 9.95114C52.4081 9.93666 52.4054 9.92233 52.4001 9.90895C52.3948 9.89558 52.387 9.88342 52.3773 9.87319C52.3675 9.86295 52.3558 9.85483 52.343 9.84929C52.3302 9.84375 52.3165 9.8409 52.3027 9.8409L51.4877 9.85111C51.4322 9.85202 51.377 9.84077 51.3258 9.81803C51.2745 9.79529 51.2281 9.76155 51.1894 9.7189C51.1508 9.67624 51.1208 9.62558 51.1011 9.57002C51.0815 9.51446 51.0728 9.4552 51.0754 9.39587L51.0773 9.33055C51.0901 9.04067 51.2333 8.89096 51.5069 8.88144C51.9811 8.86375 52.4356 8.85762 52.8703 8.86306C53.5894 8.87123 53.3267 9.91031 53.3382 10.388C53.342 10.5295 53.3714 10.5363 53.4264 10.4084Z" fill="#8C2481"/>
  <path d="M25.408 9.84707H24.5949C24.3162 9.84707 24.1865 9.69873 24.2057 9.40204L24.2114 9.3061C24.2293 9.01622 24.3751 8.87128 24.6486 8.87128H26.0562C26.1722 8.87128 26.2834 8.92053 26.3654 9.0082C26.4474 9.09587 26.4934 9.21478 26.4934 9.33876V15.8223C26.4934 15.8699 26.5158 15.8937 26.5605 15.8937L27.4676 15.9141C27.5594 15.9163 27.6473 15.9545 27.7145 16.0215C27.7817 16.0885 27.8235 16.1797 27.8319 16.2775L27.8396 16.3878C27.8677 16.7266 27.722 16.8961 27.4024 16.8961H24.6525C24.338 16.8961 24.1878 16.7287 24.2018 16.3939L24.2057 16.2673C24.21 16.1731 24.2475 16.0841 24.3106 16.0185C24.3736 15.953 24.4574 15.9156 24.5451 15.9141L25.3946 15.8978C25.4713 15.8965 25.5097 15.8549 25.5097 15.7733L25.5078 9.95118C25.5078 9.88177 25.4745 9.84707 25.408 9.84707Z" fill="#8C2481"/>
  <path d="M39.3518 9.83685L38.5599 9.84909C38.4597 9.85081 38.3628 9.81093 38.2895 9.73785C38.2162 9.66477 38.1722 9.56416 38.1667 9.45714L38.1591 9.34078C38.1559 9.28005 38.1645 9.21927 38.1842 9.16217C38.2039 9.10507 38.2343 9.05284 38.2736 9.0087C38.3129 8.96456 38.3603 8.92942 38.4128 8.90543C38.4653 8.88145 38.5219 8.86913 38.579 8.86922L40.0249 8.87126C40.1394 8.87126 40.2491 8.91987 40.33 9.00639C40.4109 9.09291 40.4564 9.21026 40.4564 9.33262L40.4583 15.81C40.4583 15.8753 40.4884 15.908 40.5485 15.908H41.4037C41.5059 15.9079 41.6041 15.95 41.6778 16.0253C41.7514 16.1007 41.7948 16.2035 41.7988 16.3122L41.8007 16.3959C41.8135 16.7293 41.6626 16.896 41.3481 16.896H38.6097C38.5489 16.8961 38.4887 16.8831 38.4326 16.8579C38.3766 16.8327 38.3259 16.7958 38.2835 16.7493C38.2411 16.7029 38.2079 16.6478 38.1859 16.5875C38.1639 16.5271 38.1534 16.4627 38.1552 16.3979L38.1571 16.2693C38.1596 16.1753 38.1961 16.0858 38.2589 16.0196C38.3218 15.9535 38.4063 15.9157 38.4947 15.9141L39.3403 15.8998C39.4158 15.8985 39.4535 15.8576 39.4535 15.7774L39.4554 9.943C39.4554 9.87087 39.4209 9.83549 39.3518 9.83685Z" fill="#8C2481"/>
  <path d="M15.7682 11.3842C16.3166 11.4305 16.7634 11.5067 17.1086 11.6129C17.8437 11.8388 18.4612 12.3015 18.9611 13.001C19.2078 13.6379 19.3439 14.2796 19.3695 14.9261C19.3887 15.3956 19.1279 16.3918 18.775 16.7041C18.426 17.0144 18.1978 17.3635 17.7568 17.5697C17.7018 17.5942 17.6666 17.6371 17.6513 17.6983C17.6168 17.829 17.5445 17.9208 17.4346 17.9739C17.2211 18.0746 17.1073 18.1297 17.0933 18.1393C16.2802 18.719 15.3738 18.9545 14.374 18.8456C14.1439 18.8211 13.6881 18.553 13.0067 18.0413C11.9367 16.5755 11.8945 14.7995 12.7843 13.1929C13.4849 12.1491 14.4795 11.5462 15.7682 11.3842Z" fill="#B6408D"/>
  <path d="M7.75786 13.6625C8.18869 14.8982 8.17399 16.1319 7.71375 17.3635C7.28292 18.1243 6.75684 18.6843 6.13552 19.0436C4.634 19.9092 2.80456 19.6213 1.58877 18.3495C0.28477 16.9818 0.131358 14.7199 1.16305 13.1154C2.56869 10.927 5.86897 10.8698 7.32063 13.0459C7.47149 13.2705 7.61723 13.476 7.75786 13.6625Z" fill="#F1711B"/>
  <path d="M18.9594 13.001C20.087 14.4872 19.972 16.8021 18.8329 18.1617C17.2316 20.0704 14.6466 19.9867 13.0051 18.0413C13.6865 18.553 14.1423 18.8211 14.3724 18.8456C15.3721 18.9544 16.2786 18.719 17.0916 18.1392C17.1057 18.1297 17.2195 18.0746 17.433 17.9739C17.5429 17.9208 17.6152 17.8289 17.6497 17.6983C17.665 17.6371 17.7002 17.5942 17.7551 17.5697C18.1962 17.3635 18.4244 17.0144 18.7734 16.7041C19.1263 16.3918 19.3871 15.3956 19.3679 14.9261C19.3423 14.2796 19.2062 13.6379 18.9594 13.001Z" fill="#B6408D"/>
  <path d="M7.75749 13.6624C8.94771 14.4436 10.276 14.5545 11.7424 13.9952C11.9009 13.9353 11.9495 13.9884 11.8881 14.1544C11.5027 15.2159 11.6963 16.0733 11.9993 17.1696C12.0249 17.2608 11.9981 17.2853 11.9188 17.2431C10.5611 16.5177 9.15929 16.5578 7.71338 17.3635C8.17362 16.1319 8.18832 14.8982 7.75749 13.6624Z" fill="#F7AE87"/>
</svg>
