<svg width="18" height="18" viewBox="0 0 18 18" fill="none" xmlns="http://www.w3.org/2000/svg">
  <path d="M12.75 8.25002H7.05748L9.53248 5.78252C9.67371 5.64129 9.75305 5.44974 9.75305 5.25002C9.75305 5.05029 9.67371 4.85874 9.53248 4.71752C9.39126 4.57629 9.19971 4.49695 8.99998 4.49695C8.80026 4.49695 8.60871 4.57629 8.46748 4.71752L4.71748 8.46752C4.6492 8.53885 4.59568 8.62295 4.55998 8.71502C4.48497 8.89761 4.48497 9.10242 4.55998 9.28502C4.59568 9.37708 4.6492 9.46119 4.71748 9.53252L8.46748 13.2825C8.53721 13.3528 8.62016 13.4086 8.71155 13.4467C8.80295 13.4848 8.90097 13.5044 8.99998 13.5044C9.09899 13.5044 9.19702 13.4848 9.28842 13.4467C9.37981 13.4086 9.46276 13.3528 9.53248 13.2825C9.60278 13.2128 9.65858 13.1298 9.69665 13.0385C9.73473 12.9471 9.75433 12.849 9.75433 12.75C9.75433 12.651 9.73473 12.553 9.69665 12.4616C9.65858 12.3702 9.60278 12.2872 9.53248 12.2175L7.05748 9.75002H12.75C12.9489 9.75002 13.1397 9.671 13.2803 9.53035C13.421 9.3897 13.5 9.19893 13.5 9.00002C13.5 8.80111 13.421 8.61034 13.2803 8.46969C13.1397 8.32904 12.9489 8.25002 12.75 8.25002Z" fill="black"/>
</svg>
