<svg width="15" height="15" viewBox="0 0 15 15" fill="none" xmlns="http://www.w3.org/2000/svg">
  <circle cx="7.5" cy="7.5" r="7.5" fill="#27AE60"/>
  <path d="M11.1347 4.9054C11.0843 4.85463 11.0244 4.81434 10.9584 4.78684C10.8924 4.75934 10.8216 4.74518 10.7501 4.74518C10.6786 4.74518 10.6078 4.75934 10.5418 4.78684C10.4758 4.81434 10.4158 4.85463 10.3655 4.9054L6.33007 8.94624L4.63466 7.2454C4.58238 7.1949 4.52066 7.15519 4.45303 7.12853C4.3854 7.10188 4.31318 7.08881 4.2405 7.09007C4.16782 7.09133 4.0961 7.10689 4.02943 7.13586C3.96276 7.16484 3.90245 7.20666 3.85195 7.25894C3.80145 7.31123 3.76173 7.37294 3.73508 7.44057C3.70843 7.5082 3.69536 7.58042 3.69662 7.6531C3.69787 7.72578 3.71343 7.79751 3.74241 7.86417C3.77139 7.93084 3.81321 7.99115 3.86549 8.04165L5.94549 10.1217C5.99585 10.1724 6.05576 10.2127 6.12176 10.2402C6.18777 10.2677 6.25857 10.2819 6.33007 10.2819C6.40158 10.2819 6.47238 10.2677 6.53839 10.2402C6.60439 10.2127 6.6643 10.1724 6.71466 10.1217L11.1347 5.70165C11.1896 5.65093 11.2335 5.58937 11.2635 5.52085C11.2935 5.45233 11.309 5.37833 11.309 5.30353C11.309 5.22872 11.2935 5.15473 11.2635 5.08621C11.2335 5.01769 11.1896 4.95613 11.1347 4.9054Z" fill="white"/>
</svg>
