<svg width="10" height="8" viewBox="0 0 10 8" fill="none" xmlns="http://www.w3.org/2000/svg">
<path d="M9.47322 0.806665C9.41124 0.74418 9.33751 0.694583 9.25627 0.660738C9.17503 0.626892 9.08789 0.609467 8.99989 0.609467C8.91188 0.609467 8.82474 0.626892 8.7435 0.660738C8.66226 0.694583 8.58853 0.74418 8.52655 0.806665L3.55989 5.78L1.47322 3.68667C1.40887 3.62451 1.33291 3.57563 1.24967 3.54283C1.16644 3.51003 1.07755 3.49394 0.9881 3.49549C0.898646 3.49703 0.810373 3.51619 0.728321 3.55185C0.646269 3.58751 0.572044 3.63898 0.509885 3.70333C0.447726 3.76768 0.39885 3.84364 0.366047 3.92688C0.333245 4.01011 0.317158 4.099 0.318705 4.18845C0.320253 4.2779 0.339405 4.36618 0.375067 4.44823C0.41073 4.53028 0.462204 4.60451 0.526552 4.66667L3.08655 7.22667C3.14853 7.28915 3.22226 7.33875 3.3035 7.37259C3.38474 7.40644 3.47188 7.42386 3.55989 7.42386C3.64789 7.42386 3.73503 7.40644 3.81627 7.37259C3.89751 7.33875 3.97124 7.28915 4.03322 7.22667L9.47322 1.78667C9.54089 1.72424 9.59489 1.64847 9.63183 1.56414C9.66877 1.4798 9.68784 1.38873 9.68784 1.29667C9.68784 1.2046 9.66877 1.11353 9.63183 1.02919C9.59489 0.944861 9.54089 0.869094 9.47322 0.806665Z" fill="#B6B6C4"/>
</svg>
