<svg width="18" height="18" viewBox="0 0 18 18" fill="none" xmlns="http://www.w3.org/2000/svg">
<path d="M10.0579 9.00002L14.7829 4.28252C14.9242 4.14129 15.0035 3.94974 15.0035 3.75002C15.0035 3.55029 14.9242 3.35874 14.7829 3.21752C14.6417 3.07629 14.4502 2.99695 14.2504 2.99695C14.0507 2.99695 13.8592 3.07629 13.7179 3.21752L9.00044 7.94252L4.28294 3.21752C4.14171 3.07629 3.95017 2.99695 3.75044 2.99695C3.55072 2.99695 3.35917 3.07629 3.21794 3.21752C3.07671 3.35874 2.99737 3.55029 2.99737 3.75002C2.99737 3.94974 3.07671 4.14129 3.21794 4.28252L7.94294 9.00002L3.21794 13.7175C3.14765 13.7872 3.09185 13.8702 3.05377 13.9616C3.0157 14.053 2.99609 14.151 2.99609 14.25C2.99609 14.349 3.0157 14.4471 3.05377 14.5384C3.09185 14.6298 3.14765 14.7128 3.21794 14.7825C3.28766 14.8528 3.37062 14.9086 3.46201 14.9467C3.5534 14.9848 3.65143 15.0044 3.75044 15.0044C3.84945 15.0044 3.94748 14.9848 4.03888 14.9467C4.13027 14.9086 4.21322 14.8528 4.28294 14.7825L9.00044 10.0575L13.7179 14.7825C13.7877 14.8528 13.8706 14.9086 13.962 14.9467C14.0534 14.9848 14.1514 15.0044 14.2504 15.0044C14.3495 15.0044 14.4475 14.9848 14.5389 14.9467C14.6303 14.9086 14.7132 14.8528 14.7829 14.7825C14.8532 14.7128 14.909 14.6298 14.9471 14.5384C14.9852 14.4471 15.0048 14.349 15.0048 14.25C15.0048 14.151 14.9852 14.053 14.9471 13.9616C14.909 13.8702 14.8532 13.7872 14.7829 13.7175L10.0579 9.00002Z" fill="black"/>
</svg>
