<svg width="16" height="14" viewBox="0 0 16 14" fill="none" xmlns="http://www.w3.org/2000/svg">
<path d="M8.00006 9.66669C7.86821 9.66669 7.73931 9.70578 7.62968 9.77904C7.52005 9.85229 7.4346 9.95641 7.38414 10.0782C7.33368 10.2 7.32048 10.3341 7.3462 10.4634C7.37193 10.5927 7.43542 10.7115 7.52866 10.8048C7.62189 10.898 7.74068 10.9615 7.87 10.9872C7.99932 11.0129 8.13337 10.9997 8.25518 10.9493C8.377 10.8988 8.48112 10.8134 8.55437 10.7037C8.62763 10.5941 8.66673 10.4652 8.66673 10.3334C8.66673 10.1565 8.59649 9.98697 8.47146 9.86195C8.34644 9.73692 8.17687 9.66669 8.00006 9.66669ZM15.1134 10.6467L9.74673 1.31335C9.57326 1.00236 9.31992 0.743323 9.01286 0.562997C8.70579 0.382672 8.35616 0.287598 8.00006 0.287598C7.64396 0.287598 7.29433 0.382672 6.98726 0.562997C6.6802 0.743323 6.42686 1.00236 6.25339 1.31335L0.92006 10.6467C0.74059 10.9494 0.644155 11.294 0.640489 11.6459C0.636824 11.9978 0.726058 12.3444 0.899184 12.6507C1.07231 12.9571 1.3232 13.2123 1.62652 13.3907C1.92984 13.5691 2.27485 13.6643 2.62673 13.6667H13.3734C13.7281 13.6702 14.0773 13.5793 14.3853 13.4033C14.6933 13.2273 14.949 12.9726 15.126 12.6652C15.3031 12.3579 15.3953 12.009 15.3931 11.6542C15.3908 11.2995 15.2943 10.9518 15.1134 10.6467ZM13.9601 11.98C13.9016 12.084 13.8164 12.1704 13.7132 12.2302C13.61 12.29 13.4927 12.321 13.3734 12.32H2.62673C2.50747 12.321 2.39013 12.29 2.28694 12.2302C2.18375 12.1704 2.0985 12.084 2.04006 11.98C1.98155 11.8787 1.95074 11.7637 1.95074 11.6467C1.95074 11.5297 1.98155 11.4147 2.04006 11.3134L7.37339 1.98002C7.42934 1.87082 7.51434 1.77917 7.61902 1.71518C7.72371 1.65119 7.84403 1.61733 7.96673 1.61733C8.08942 1.61733 8.20974 1.65119 8.31443 1.71518C8.41912 1.77917 8.50411 1.87082 8.56006 1.98002L13.9267 11.3134C13.9929 11.4132 14.0309 11.5291 14.0367 11.6488C14.0426 11.7684 14.0161 11.8875 13.9601 11.9934V11.98ZM8.00006 4.33335C7.82325 4.33335 7.65368 4.40359 7.52866 4.52861C7.40363 4.65364 7.33339 4.82321 7.33339 5.00002V7.66669C7.33339 7.8435 7.40363 8.01307 7.52866 8.13809C7.65368 8.26311 7.82325 8.33335 8.00006 8.33335C8.17687 8.33335 8.34644 8.26311 8.47146 8.13809C8.59649 8.01307 8.66673 7.8435 8.66673 7.66669V5.00002C8.66673 4.82321 8.59649 4.65364 8.47146 4.52861C8.34644 4.40359 8.17687 4.33335 8.00006 4.33335Z" fill="#F57F17"/>
</svg>
