<svg width="15" height="15" viewBox="0 0 15 15" fill="none" xmlns="http://www.w3.org/2000/svg">
<path d="M13.6 9.95L9.60005 2.75C9.06255 1.78125 8.3188 1.25 7.50005 1.25C6.6813 1.25 5.93755 1.78125 5.40005 2.75L1.40005 9.95C0.893797 10.8687 0.837547 11.75 1.2438 12.4437C1.65005 13.1375 2.45005 13.5187 3.50005 13.5187H11.5C12.55 13.5187 13.35 13.1375 13.7563 12.4437C14.1625 11.75 14.1063 10.8625 13.6 9.95ZM7.0313 5.625C7.0313 5.36875 7.2438 5.15625 7.50005 5.15625C7.7563 5.15625 7.9688 5.36875 7.9688 5.625V8.75C7.9688 9.00625 7.7563 9.21875 7.50005 9.21875C7.2438 9.21875 7.0313 9.00625 7.0313 8.75V5.625ZM7.9438 11.0687C7.91255 11.0937 7.8813 11.1187 7.85005 11.1437C7.81255 11.1687 7.77505 11.1875 7.73755 11.2C7.70005 11.2187 7.66255 11.2312 7.6188 11.2375C7.5813 11.2437 7.53755 11.25 7.50005 11.25C7.46255 11.25 7.4188 11.2437 7.37505 11.2375C7.33755 11.2312 7.30005 11.2187 7.26255 11.2C7.22505 11.1875 7.18755 11.1687 7.15005 11.1437C7.1188 11.1187 7.08755 11.0937 7.0563 11.0687C6.9438 10.95 6.87505 10.7875 6.87505 10.625C6.87505 10.4625 6.9438 10.3 7.0563 10.1812C7.08755 10.1562 7.1188 10.1312 7.15005 10.1062C7.18755 10.0812 7.22505 10.0625 7.26255 10.05C7.30005 10.0312 7.33755 10.0187 7.37505 10.0125C7.4563 9.99375 7.5438 9.99375 7.6188 10.0125C7.66255 10.0187 7.70005 10.0312 7.73755 10.05C7.77505 10.0625 7.81255 10.0812 7.85005 10.1062C7.8813 10.1312 7.91255 10.1562 7.9438 10.1812C8.0563 10.3 8.12505 10.4625 8.12505 10.625C8.12505 10.7875 8.0563 10.95 7.9438 11.0687Z" fill="#F57F17"/>
</svg>
