<svg width="38" height="38" viewBox="0 0 38 38" fill="none" xmlns="http://www.w3.org/2000/svg">
<path d="M29.624 11.4159C29.4769 11.2675 29.3017 11.1497 29.1088 11.0693C28.9158 10.9889 28.7089 10.9475 28.4999 10.9475C28.2909 10.9475 28.0839 10.9889 27.891 11.0693C27.698 11.1497 27.5229 11.2675 27.3757 11.4159L15.5799 23.2275L10.624 18.2559C10.4712 18.1082 10.2908 17.9921 10.0931 17.9142C9.89544 17.8363 9.68434 17.7981 9.47189 17.8018C9.25944 17.8055 9.04979 17.851 8.85491 17.9357C8.66004 18.0204 8.48376 18.1426 8.33613 18.2954C8.1885 18.4483 8.07242 18.6287 7.99452 18.8264C7.91661 19.024 7.8784 19.2351 7.88208 19.4476C7.88575 19.66 7.93124 19.8697 8.01594 20.0646C8.10064 20.2594 8.22289 20.4357 8.37571 20.5834L14.4557 26.6634C14.6029 26.8118 14.778 26.9296 14.971 27.0099C15.1639 27.0903 15.3709 27.1317 15.5799 27.1317C15.7889 27.1317 15.9958 27.0903 16.1888 27.0099C16.3817 26.9296 16.5569 26.8118 16.704 26.6634L29.624 13.7434C29.7848 13.5951 29.913 13.4151 30.0008 13.2149C30.0885 13.0146 30.1338 12.7983 30.1338 12.5796C30.1338 12.3609 30.0885 12.1447 30.0008 11.9444C29.913 11.7441 29.7848 11.5641 29.624 11.4159Z" fill="#01B200"/>
</svg>
