<svg width="24" height="25" viewBox="0 0 24 25" fill="none" xmlns="http://www.w3.org/2000/svg">
<path d="M14.8302 11.79L10.5902 7.55C10.4972 7.45627 10.3866 7.38188 10.2648 7.33111C10.1429 7.28034 10.0122 7.2542 9.88019 7.2542C9.74818 7.2542 9.61747 7.28034 9.49561 7.33111C9.37375 7.38188 9.26315 7.45627 9.17019 7.55C8.98394 7.73736 8.87939 7.99081 8.87939 8.255C8.87939 8.51919 8.98394 8.77264 9.17019 8.96L12.7102 12.5L9.17019 16.04C8.98394 16.2274 8.87939 16.4808 8.87939 16.745C8.87939 17.0092 8.98394 17.2626 9.17019 17.45C9.26363 17.5427 9.37444 17.616 9.49628 17.6658C9.61812 17.7155 9.74858 17.7408 9.88019 17.74C10.0118 17.7408 10.1423 17.7155 10.2641 17.6658C10.3859 17.616 10.4967 17.5427 10.5902 17.45L14.8302 13.21C14.9239 13.117 14.9983 13.0064 15.0491 12.8846C15.0998 12.7627 15.126 12.632 15.126 12.5C15.126 12.368 15.0998 12.2373 15.0491 12.1154C14.9983 11.9936 14.9239 11.883 14.8302 11.79Z" fill="#D2D2E1"/>
</svg>
