<svg width="40" height="40" viewBox="0 0 40 40" fill="none" xmlns="http://www.w3.org/2000/svg">
<path d="M14.5168 12.85L18.3335 9.0167V25C18.3335 25.4421 18.5091 25.866 18.8217 26.1785C19.1342 26.4911 19.5581 26.6667 20.0002 26.6667C20.4422 26.6667 20.8661 26.4911 21.1787 26.1785C21.4912 25.866 21.6668 25.4421 21.6668 25V9.0167L25.4835 12.85C25.6384 13.0062 25.8228 13.1302 26.0259 13.2148C26.229 13.2995 26.4468 13.343 26.6668 13.343C26.8869 13.343 27.1047 13.2995 27.3078 13.2148C27.5109 13.1302 27.6952 13.0062 27.8502 12.85C28.0064 12.6951 28.1304 12.5108 28.215 12.3077C28.2996 12.1046 28.3432 11.8867 28.3432 11.6667C28.3432 11.4467 28.2996 11.2288 28.215 11.0257C28.1304 10.8226 28.0064 10.6383 27.8502 10.4834L21.1835 3.8167C21.025 3.66496 20.8381 3.54602 20.6335 3.4667C20.2277 3.3 19.7726 3.3 19.3668 3.4667C19.1622 3.54602 18.9753 3.66496 18.8168 3.8167L12.1502 10.4834C11.9948 10.6388 11.8715 10.8232 11.7874 11.0263C11.7033 11.2293 11.66 11.4469 11.66 11.6667C11.66 11.8865 11.7033 12.1041 11.7874 12.3071C11.8715 12.5101 11.9948 12.6946 12.1502 12.85C12.3056 13.0054 12.49 13.1287 12.6931 13.2128C12.8961 13.2969 13.1137 13.3402 13.3335 13.3402C13.5533 13.3402 13.7709 13.2969 13.9739 13.2128C14.1769 13.1287 14.3614 13.0054 14.5168 12.85ZM35.0002 23.3334C34.5581 23.3334 34.1342 23.509 33.8217 23.8215C33.5091 24.1341 33.3335 24.558 33.3335 25V31.6667C33.3335 32.1087 33.1579 32.5326 32.8453 32.8452C32.5328 33.1578 32.1089 33.3334 31.6668 33.3334H8.3335C7.89147 33.3334 7.46755 33.1578 7.15499 32.8452C6.84242 32.5326 6.66683 32.1087 6.66683 31.6667V25C6.66683 24.558 6.49124 24.1341 6.17867 23.8215C5.86611 23.509 5.44219 23.3334 5.00016 23.3334C4.55814 23.3334 4.13421 23.509 3.82165 23.8215C3.50909 24.1341 3.3335 24.558 3.3335 25V31.6667C3.3335 32.9928 3.86028 34.2646 4.79796 35.2022C5.73564 36.1399 7.00741 36.6667 8.3335 36.6667H31.6668C32.9929 36.6667 34.2647 36.1399 35.2024 35.2022C36.14 34.2646 36.6668 32.9928 36.6668 31.6667V25C36.6668 24.558 36.4912 24.1341 36.1787 23.8215C35.8661 23.509 35.4422 23.3334 35.0002 23.3334Z" fill="#B6B6C4"/>
</svg>
