<svg xmlns="http://www.w3.org/2000/svg" width="24" height="24" viewBox="0 0 24 24" fill="none">
  <rect x="0.5" y="0.5" width="23" height="23" rx="2.5" fill="#01B200"/>
  <path d="M18.7085 7.21001C18.6155 7.11628 18.5049 7.04189 18.3831 6.99112C18.2612 6.94035 18.1305 6.91422 17.9985 6.91422C17.8665 6.91422 17.7358 6.94035 17.6139 6.99112C17.492 7.04189 17.3814 7.11628 17.2885 7.21001L9.83849 14.67L6.70849 11.53C6.61196 11.4368 6.49802 11.3635 6.37317 11.3143C6.24831 11.2651 6.11499 11.2409 5.98081 11.2432C5.84663 11.2456 5.71422 11.2743 5.59114 11.3278C5.46806 11.3813 5.35672 11.4585 5.26348 11.555C5.17025 11.6515 5.09693 11.7655 5.04773 11.8903C4.99852 12.0152 4.97439 12.1485 4.97672 12.2827C4.97904 12.4169 5.00776 12.5493 5.06126 12.6724C5.11475 12.7954 5.19196 12.9068 5.28848 13L9.12849 16.84C9.22145 16.9337 9.33205 17.0081 9.45391 17.0589C9.57577 17.1097 9.70647 17.1358 9.83849 17.1358C9.9705 17.1358 10.1012 17.1097 10.2231 17.0589C10.3449 17.0081 10.4555 16.9337 10.5485 16.84L18.7085 8.68001C18.81 8.58637 18.891 8.47272 18.9464 8.34622C19.0018 8.21972 19.0304 8.08312 19.0304 7.94501C19.0304 7.80691 19.0018 7.67031 18.9464 7.54381C18.891 7.41731 18.81 7.30366 18.7085 7.21001Z" fill="white"/>
</svg>
