<svg width="15" height="15" viewBox="0 0 15 15" fill="none" xmlns="http://www.w3.org/2000/svg">
  <circle cx="7.5" cy="7.5" r="7.5" fill="#EF4646"/>
  <path d="M8.14614 7.50002L11.0336 4.61711C11.1199 4.5308 11.1684 4.41375 11.1684 4.29169C11.1684 4.16964 11.1199 4.05258 11.0336 3.96627C10.9473 3.87997 10.8303 3.83148 10.7082 3.83148C10.5862 3.83148 10.4691 3.87997 10.3828 3.96627L7.49989 6.85377L4.61697 3.96627C4.53067 3.87997 4.41361 3.83148 4.29156 3.83148C4.1695 3.83148 4.05245 3.87997 3.96614 3.96627C3.87983 4.05258 3.83135 4.16964 3.83135 4.29169C3.83135 4.41375 3.87983 4.5308 3.96614 4.61711L6.85364 7.50002L3.96614 10.3829C3.92318 10.4255 3.88908 10.4762 3.86582 10.5321C3.84255 10.5879 3.83057 10.6479 3.83057 10.7084C3.83057 10.7689 3.84255 10.8288 3.86582 10.8846C3.88908 10.9405 3.92318 10.9912 3.96614 11.0338C4.00875 11.0767 4.05944 11.1108 4.11529 11.1341C4.17115 11.1574 4.23105 11.1693 4.29156 11.1693C4.35206 11.1693 4.41197 11.1574 4.46782 11.1341C4.52367 11.1108 4.57437 11.0767 4.61697 11.0338L7.49989 8.14627L10.3828 11.0338C10.4254 11.0767 10.4761 11.1108 10.532 11.1341C10.5878 11.1574 10.6477 11.1693 10.7082 11.1693C10.7687 11.1693 10.8286 11.1574 10.8845 11.1341C10.9403 11.1108 10.991 11.0767 11.0336 11.0338C11.0766 10.9912 11.1107 10.9405 11.134 10.8846C11.1572 10.8288 11.1692 10.7689 11.1692 10.7084C11.1692 10.6479 11.1572 10.5879 11.134 10.5321C11.1107 10.4762 11.0766 10.4255 11.0336 10.3829L8.14614 7.50002Z" fill="white"/>
</svg>
