<svg xmlns="http://www.w3.org/2000/svg" width="20" height="20" viewBox="0 0 20 20" fill="none">
  <path d="M14.1671 7.64166C14.0109 7.48646 13.7997 7.39934 13.5796 7.39934C13.3594 7.39934 13.1482 7.48646 12.9921 7.64166L10.0004 10.5917L7.0504 7.64166C6.89427 7.48646 6.68306 7.39934 6.4629 7.39934C6.24275 7.39934 6.03154 7.48646 5.8754 7.64166C5.7973 7.71913 5.7353 7.8113 5.693 7.91285C5.65069 8.0144 5.62891 8.12332 5.62891 8.23333C5.62891 8.34334 5.65069 8.45226 5.693 8.55381C5.7353 8.65536 5.7973 8.74753 5.8754 8.825L9.40874 12.3583C9.48621 12.4364 9.57837 12.4984 9.67992 12.5407C9.78147 12.583 9.89039 12.6048 10.0004 12.6048C10.1104 12.6048 10.2193 12.583 10.3209 12.5407C10.4224 12.4984 10.5146 12.4364 10.5921 12.3583L14.1671 8.825C14.2452 8.74753 14.3072 8.65536 14.3495 8.55381C14.3918 8.45226 14.4136 8.34334 14.4136 8.23333C14.4136 8.12332 14.3918 8.0144 14.3495 7.91285C14.3072 7.8113 14.2452 7.71913 14.1671 7.64166Z" fill="#B6B6C4"/>
</svg>
