<svg width="86" height="27" viewBox="0 0 86 27" fill="none" xmlns="http://www.w3.org/2000/svg">
<path d="M13.1418 11.181C13.2338 10.8992 13.2926 10.6413 13.3182 10.4073C13.331 10.2929 13.3118 10.1718 13.2607 10.0439C13.2057 9.90507 13.1488 9.76898 13.09 9.63561C13.0644 9.57845 13.0293 9.52877 12.9845 9.48658C12.5837 9.09259 12.4437 8.62919 11.8704 8.35768C11.8192 8.33319 11.777 8.29644 11.7438 8.24745C11.5814 8.00656 11.3654 7.86706 11.0956 7.82896C11.0573 7.82351 11.0477 7.80242 11.0669 7.76567C11.0758 7.74798 11.0854 7.72825 11.0956 7.70647C11.1033 7.68875 11.1043 7.66861 11.0987 7.65007C11.093 7.63154 11.0809 7.61596 11.0649 7.60644L9.20674 6.52858C9.16583 6.50408 9.12108 6.5068 9.0725 6.53674C9.05205 6.55035 9.02904 6.57553 9.00347 6.61228C8.97406 6.65174 8.94914 6.64902 8.92868 6.60411C8.8443 6.42447 8.27668 6.35914 8.06382 6.21012C8.00885 6.17065 7.95068 6.16589 7.88931 6.19583L7.30251 6.48571C7.27251 6.50032 7.24774 6.52384 7.23156 6.55308C7.06536 6.86065 6.85186 7.08861 6.59106 7.23695C8.02547 3.56037 12.9615 3.96865 13.8321 7.84325C14.0929 9.00141 13.8628 10.114 13.1418 11.181Z" fill="#EF4C30"/>
<path d="M13.1406 11.181C12.9949 11.4409 12.7711 11.6995 12.4694 11.9567C12.3454 11.9036 12.2061 11.941 12.0514 12.069C11.9964 12.1139 11.9446 12.1091 11.8961 12.0547L11.6468 11.7709C11.5969 11.7124 11.5733 11.6437 11.5758 11.5647C11.5848 11.3334 11.4914 11.1592 11.2958 11.0421C11.2268 11.0013 11.1699 11.0142 11.1252 11.0809C11.0945 11.1258 11.0548 11.1286 11.0063 11.0891C11.0023 11.0856 10.9992 11.0812 10.9971 11.0762C10.9951 11.0712 10.9942 11.0658 10.9946 11.0605C10.995 11.0552 10.9966 11.0502 10.9993 11.0459C11.002 11.0416 11.0057 11.0382 11.0101 11.036L11.1194 10.9748C11.1356 10.966 11.148 10.9509 11.1541 10.9327C11.1601 10.9145 11.1594 10.8945 11.152 10.8768C11.1328 10.8332 11.0983 10.8101 11.0485 10.8074C11.028 10.8047 11.0088 10.8101 10.9909 10.8237C10.9679 10.84 10.9532 10.8611 10.9468 10.887C10.9366 10.9278 10.9117 10.9523 10.872 10.9605C10.8477 10.9659 10.8305 10.9523 10.8203 10.9197C10.8062 10.8707 10.8209 10.8346 10.8644 10.8115C10.8823 10.8019 10.8982 10.7904 10.9123 10.7768C10.9609 10.7291 10.9609 10.6815 10.9123 10.6339C10.8573 10.5808 10.7889 10.5529 10.7071 10.5502C10.6873 10.5494 10.6678 10.5444 10.6499 10.5353C10.6319 10.5263 10.6159 10.5134 10.6028 10.4976C10.5897 10.4817 10.5798 10.4632 10.5736 10.4431C10.5675 10.423 10.5653 10.4018 10.5671 10.3807L10.5786 10.2399C10.5791 10.2276 10.5759 10.2154 10.5696 10.2052C10.5633 10.1949 10.5541 10.1869 10.5434 10.1824C10.5326 10.1779 10.5208 10.1771 10.5096 10.1801C10.4984 10.1831 10.4883 10.1897 10.4808 10.199C10.4374 10.2548 10.3856 10.2868 10.3255 10.295C10.2513 10.3031 10.2411 10.2793 10.2948 10.2235L10.3447 10.1705C10.3907 10.1228 10.3913 10.0745 10.3466 10.0255L9.93046 9.57436C9.92376 9.56704 9.91554 9.5615 9.90646 9.55818C9.89738 9.55486 9.88769 9.55385 9.87818 9.55524C9.86866 9.55663 9.85959 9.56038 9.85168 9.56618C9.84378 9.57198 9.83727 9.57968 9.83266 9.58865C9.81732 9.61723 9.80582 9.64581 9.79815 9.67439C9.77641 9.76421 9.73806 9.77374 9.68309 9.70297C9.64473 9.65262 9.64409 9.5975 9.68117 9.53762C9.72847 9.4614 9.71057 9.41241 9.62747 9.39063C9.54054 9.36886 9.44913 9.35049 9.35325 9.33552C9.35339 9.3362 9.34707 9.33317 9.33563 9.32708C9.32418 9.32099 9.3085 9.3123 9.29189 9.30285C9.27143 9.29061 9.26312 9.27223 9.26696 9.24774C9.27718 9.19602 9.25865 9.16064 9.21134 9.14158C9.12697 9.10892 9.07008 9.11845 9.04067 9.17016C8.99721 9.24501 8.94543 9.2525 8.88534 9.19262L8.42894 8.74555C8.3842 8.70064 8.34457 8.70472 8.31005 8.7578C8.28959 8.78774 8.26722 8.81224 8.24293 8.83129C8.19818 8.86395 8.15919 8.85783 8.12595 8.81292C8.01089 8.65096 7.86387 8.54413 7.68489 8.49241C7.61841 8.47336 7.56408 8.43594 7.52189 8.38014C7.45669 8.29576 7.38638 8.28691 7.31095 8.3536C7.2905 8.37265 7.26812 8.37605 7.24383 8.3638L6.74716 8.11475C6.6858 8.08345 6.63338 8.07597 6.58991 8.0923C6.52344 8.11952 6.44993 8.13108 6.36938 8.127L6.58991 7.23695C6.85072 7.0886 7.06421 6.86065 7.23041 6.55307C7.24659 6.52384 7.27136 6.50032 7.30136 6.48571L7.88816 6.19583C7.94953 6.16589 8.0077 6.17065 8.06267 6.21012C8.27553 6.35914 8.84315 6.42446 8.92753 6.60411C8.94799 6.64902 8.97292 6.65174 9.00232 6.61227C9.02789 6.57553 9.0509 6.55035 9.07136 6.53674C9.11994 6.5068 9.16468 6.50408 9.20559 6.52858L11.0638 7.60644C11.0798 7.61596 11.0918 7.63153 11.0975 7.65007C11.1032 7.66861 11.1021 7.68874 11.0945 7.70647C11.0842 7.72825 11.0747 7.74798 11.0657 7.76567C11.0465 7.80242 11.0561 7.82351 11.0945 7.82896C11.3642 7.86706 11.5803 8.00656 11.7426 8.24744C11.7759 8.29644 11.8181 8.33318 11.8692 8.35768C12.4426 8.62919 12.5826 9.09259 12.9834 9.48658C13.0281 9.52877 13.0633 9.57844 13.0888 9.6356C13.1476 9.76898 13.2045 9.90507 13.2595 10.0439C13.3106 10.1718 13.3298 10.2929 13.317 10.4073C13.2915 10.6413 13.2327 10.8992 13.1406 11.181Z" fill="#EF4C30"/>
<path d="M30.0093 8.12494L29.1234 8.12698C29.0293 8.12753 28.9387 8.08845 28.8713 8.01818C28.8038 7.94791 28.7649 7.85207 28.7629 7.75136L28.7609 7.65133C28.7546 7.33287 28.9009 7.16548 29.2001 7.14915C29.7025 7.12329 30.1468 7.12057 30.5329 7.14098C30.9279 7.16276 31.1235 7.38935 31.1197 7.82077C31.0851 11.8124 31.066 15.8041 31.0621 19.7957C31.0621 19.8651 31.0954 19.9005 31.1618 19.9018L32.113 19.908C32.2044 19.9089 32.2921 19.9469 32.3583 20.0144C32.4245 20.0818 32.4643 20.1737 32.4697 20.2713L32.4754 20.404C32.4786 20.4675 32.4696 20.5309 32.449 20.5905C32.4284 20.6501 32.3967 20.7045 32.3558 20.7506C32.3149 20.7966 32.2656 20.8333 32.211 20.8583C32.1564 20.8833 32.0976 20.8961 32.0382 20.896L29.2653 20.8981C29.2066 20.8981 29.1486 20.885 29.095 20.8597C29.0414 20.8343 28.9934 20.7972 28.9542 20.7508C28.915 20.7044 28.8853 20.6497 28.8672 20.5903C28.8491 20.5309 28.843 20.4682 28.8492 20.4061L28.8607 20.2754C28.8701 20.1763 28.9133 20.0843 28.9823 20.0169C29.0512 19.9496 29.141 19.9115 29.2346 19.91L29.9595 19.8998C30.063 19.8984 30.1148 19.8426 30.1148 19.7324L30.1129 8.23518C30.1129 8.16033 30.0784 8.12358 30.0093 8.12494Z" fill="#8C2481"/>
<path d="M34.7671 19.7774L34.7652 8.23318C34.7652 8.15969 34.73 8.12294 34.6597 8.12294L33.8102 8.12702C33.7159 8.12745 33.6249 8.09032 33.5553 8.02302C33.4857 7.95571 33.4425 7.86313 33.4343 7.76365L33.4267 7.66771C33.396 7.30978 33.55 7.13081 33.8888 7.13081L35.2734 7.13694C35.391 7.13748 35.5037 7.18761 35.5867 7.27637C35.6697 7.36513 35.7163 7.48529 35.7163 7.61055V19.8121C35.7163 19.8733 35.7458 19.9039 35.8046 19.9039L36.7442 19.908C36.8443 19.9088 36.9405 19.9498 37.0134 20.0229C37.0863 20.096 37.1306 20.1957 37.1373 20.302L37.1431 20.3939C37.147 20.4583 37.1385 20.5229 37.118 20.5837C37.0975 20.6445 37.0655 20.7002 37.024 20.7473C36.9824 20.7944 36.9323 20.8319 36.8765 20.8575C36.8208 20.8831 36.7608 20.8962 36.7001 20.8961H33.9828C33.6683 20.8961 33.5098 20.728 33.5072 20.3918V20.3102C33.5067 20.2574 33.5161 20.205 33.5348 20.1561C33.5534 20.1072 33.5811 20.0627 33.616 20.0253C33.651 19.9879 33.6926 19.9582 33.7385 19.9381C33.7843 19.918 33.8335 19.9077 33.8831 19.908H34.6425C34.7256 19.908 34.7671 19.8645 34.7671 19.7774Z" fill="#8C2481"/>
<path d="M12.4685 11.9567C11.6772 12.546 10.7695 12.8495 9.74548 12.8672C8.56932 12.6018 7.65396 12.0241 6.9994 11.134C6.98278 11.1109 6.9636 11.0959 6.94187 11.0891C6.92117 11.073 6.83375 10.8992 6.82359 10.875C6.81734 10.8601 6.80863 10.8437 6.79613 10.8196C6.3653 9.96768 6.22275 9.07014 6.36849 8.12701C6.44903 8.13109 6.52254 8.11953 6.58902 8.09231C6.63249 8.07598 6.6849 8.08346 6.74627 8.11476L7.24294 8.36381C7.26723 8.37606 7.2896 8.37266 7.31006 8.35361C7.38549 8.28692 7.4558 8.29577 7.521 8.38015C7.56319 8.43594 7.61752 8.47337 7.684 8.49242C7.86298 8.54414 8.01 8.65097 8.12506 8.81293C8.1583 8.85784 8.19729 8.86396 8.24204 8.8313C8.26633 8.81224 8.2887 8.78775 8.30915 8.75781C8.34367 8.70473 8.3833 8.70065 8.42805 8.74556L8.88445 9.19263C8.94454 9.25251 8.99631 9.24502 9.03978 9.17017C9.06918 9.11846 9.12607 9.10893 9.21045 9.14159C9.25775 9.16065 9.27629 9.19603 9.26606 9.24775C9.26223 9.27224 9.27054 9.29061 9.29099 9.30286C9.30761 9.31231 9.32329 9.321 9.33473 9.32709C9.34618 9.33318 9.3525 9.33621 9.35236 9.33553C9.44824 9.3505 9.53965 9.36887 9.62658 9.39064C9.70968 9.41242 9.72758 9.46141 9.68028 9.53763C9.6432 9.59751 9.64384 9.65263 9.68219 9.70298C9.73717 9.77375 9.77552 9.76422 9.79725 9.6744C9.80492 9.64582 9.81643 9.61724 9.83177 9.58866C9.83637 9.57969 9.84289 9.57199 9.85079 9.56619C9.8587 9.56039 9.86777 9.55664 9.87728 9.55525C9.8868 9.55386 9.89648 9.55487 9.90556 9.55819C9.91465 9.56151 9.92287 9.56705 9.92957 9.57437L10.3457 10.0255C10.3904 10.0745 10.3898 10.1228 10.3438 10.1705L10.2939 10.2235C10.2402 10.2793 10.2505 10.3032 10.3246 10.295C10.3847 10.2868 10.4365 10.2548 10.4799 10.199C10.4875 10.1897 10.4975 10.1831 10.5087 10.1801C10.5199 10.1771 10.5317 10.178 10.5425 10.1824C10.5532 10.1869 10.5624 10.1949 10.5687 10.2052C10.575 10.2155 10.5782 10.2276 10.5777 10.2399L10.5662 10.3807C10.5644 10.4018 10.5666 10.423 10.5727 10.4431C10.5789 10.4632 10.5888 10.4817 10.6019 10.4976C10.615 10.5134 10.631 10.5263 10.649 10.5353C10.6669 10.5444 10.6864 10.5494 10.7062 10.5502C10.788 10.5529 10.8564 10.5808 10.9114 10.6339C10.96 10.6815 10.96 10.7291 10.9114 10.7768C10.8973 10.7904 10.8814 10.8019 10.8635 10.8115C10.82 10.8346 10.8053 10.8707 10.8194 10.9197C10.8296 10.9523 10.8468 10.9659 10.8711 10.9605C10.9108 10.9523 10.9357 10.9278 10.9459 10.887C10.9523 10.8611 10.967 10.84 10.99 10.8237C11.0079 10.8101 11.0271 10.8047 11.0476 10.8074C11.0974 10.8101 11.1319 10.8332 11.1511 10.8768C11.1585 10.8945 11.1592 10.9145 11.1532 10.9327C11.1471 10.9509 11.1347 10.966 11.1185 10.9748L11.0092 11.036C11.0048 11.0382 11.0011 11.0417 10.9984 11.0459C10.9957 11.0502 10.9941 11.0552 10.9937 11.0605C10.9933 11.0658 10.9942 11.0712 10.9962 11.0762C10.9983 11.0812 11.0014 11.0856 11.0054 11.0891C11.054 11.1286 11.0936 11.1258 11.1243 11.0809C11.169 11.0142 11.2259 11.0013 11.2949 11.0421C11.4905 11.1592 11.5839 11.3334 11.5749 11.5647C11.5724 11.6437 11.596 11.7124 11.6459 11.7709L11.8952 12.0547C11.9437 12.1091 11.9955 12.1139 12.0505 12.069C12.2052 11.941 12.3445 11.9036 12.4685 11.9567Z" fill="#EF4C30"/>
<path d="M25.8173 11.7423C26.2144 11.7423 26.5364 11.3996 26.5364 10.9768C26.5364 10.554 26.2144 10.2113 25.8173 10.2113C25.4201 10.2113 25.0981 10.554 25.0981 10.9768C25.0981 11.3996 25.4201 11.7423 25.8173 11.7423Z" fill="#8C2481"/>
<path d="M39.742 11.7485C40.1423 11.7485 40.4668 11.403 40.4668 10.9768C40.4668 10.5507 40.1423 10.2052 39.742 10.2052C39.3416 10.2052 39.0171 10.5507 39.0171 10.9768C39.0171 11.403 39.3416 11.7485 39.742 11.7485Z" fill="#8C2481"/>
<path d="M6.84705 11.0126C6.84705 10.8544 6.90213 11.0755 6.9456 11.0891C6.96733 11.0959 6.98651 11.1109 7.00313 11.134C7.65769 12.0241 8.57304 12.6018 9.7492 12.8672C8.33973 13.7981 7.89675 14.8575 7.58034 16.4151C7.55861 16.5172 7.51514 16.5288 7.44994 16.4498C6.75575 15.6142 5.88642 15.1277 4.84193 14.9902C4.73838 14.9766 4.73071 14.9392 4.81892 14.878C6.11398 13.9879 6.77545 12.6348 6.84705 11.0126Z" fill="#F7A6A2"/>
<path d="M15.7691 15.3842C14.4804 15.5462 13.4858 16.1491 12.7852 17.1929C12.8159 15.3863 12.1351 14.4574 10.9961 13.2999C10.9873 13.2909 10.9809 13.2795 10.9776 13.2669C10.9743 13.2544 10.9743 13.2412 10.9774 13.2288C10.9806 13.2164 10.9869 13.2052 10.9955 13.1965C11.0042 13.1878 11.015 13.1819 11.0267 13.1795C12.0175 12.9454 12.8325 12.414 13.4718 11.5851C13.5855 11.4368 13.645 11.4586 13.6501 11.6505C13.6974 13.2074 14.4037 14.452 15.7691 15.3842Z" fill="#CC89BB"/>
<path d="M50.2976 17.2708C50.296 17.7672 50.2025 18.2585 50.0225 18.7166C49.8425 19.1746 49.5796 19.5904 49.2486 19.9402C48.9177 20.2901 48.5253 20.5671 48.0938 20.7555C47.6622 20.9439 47.2001 21.04 46.7337 21.0382L45.9973 21.0355C45.531 21.0338 45.0695 20.9343 44.6392 20.7427C44.2089 20.5511 43.8183 20.2711 43.4897 19.9188C43.1611 19.5665 42.9008 19.1488 42.7239 18.6894C42.5469 18.2301 42.4566 17.7381 42.4583 17.2416L42.4607 16.5027C42.4623 16.0062 42.5558 15.5149 42.7358 15.0569C42.9158 14.5988 43.1787 14.183 43.5097 13.8332C43.8406 13.4833 44.233 13.2063 44.6645 13.0179C45.096 12.8295 45.5582 12.7334 46.0246 12.7352L46.7609 12.7379C47.2273 12.7396 47.6888 12.8392 48.1191 13.0308C48.5494 13.2224 48.94 13.5023 49.2686 13.8546C49.5972 14.2069 49.8574 14.6246 50.0344 15.084C50.2114 15.5433 50.3016 16.0353 50.3 16.5318L50.2976 17.2708ZM49.2556 16.5131C49.2556 15.7709 48.9786 15.059 48.4856 14.5341C47.9925 14.0092 47.3238 13.7144 46.6265 13.7144H46.1241C45.4268 13.7144 44.7581 14.0092 44.265 14.5341C43.772 15.059 43.495 15.7709 43.495 16.5131V17.2848C43.495 18.0271 43.772 18.7389 44.265 19.2638C44.7581 19.7887 45.4268 20.0836 46.1241 20.0836H46.6265C47.3238 20.0836 47.9925 19.7887 48.4856 19.2638C48.9786 18.7389 49.2556 18.0271 49.2556 17.2848V16.5131Z" fill="#8C2481"/>
<path d="M53.4264 14.4084C54.0554 12.9488 55.6394 12.4834 57.0067 12.7794C58.7402 13.155 59.3213 14.6779 59.3424 16.3947C59.3552 17.5175 59.3577 18.6409 59.35 19.7651C59.3498 19.7842 59.3531 19.8032 59.3599 19.8209C59.3666 19.8386 59.3766 19.8547 59.3893 19.8682C59.402 19.8817 59.4172 19.8924 59.4338 19.8995C59.4504 19.9067 59.4682 19.9103 59.4862 19.91L60.2571 19.908C60.3082 19.9077 60.3588 19.9184 60.406 19.9394C60.4531 19.9604 60.4959 19.9914 60.5316 20.0304C60.5674 20.0694 60.5955 20.1157 60.6142 20.1666C60.6329 20.2175 60.6419 20.2718 60.6406 20.3265L60.6349 20.4898C60.6285 20.7606 60.4981 20.896 60.2437 20.896L58.8208 20.894C58.7616 20.894 58.703 20.8816 58.6483 20.8575C58.5936 20.8333 58.544 20.798 58.5021 20.7535C58.4603 20.7089 58.4271 20.656 58.4044 20.5978C58.3818 20.5396 58.3701 20.4772 58.3701 20.4142C58.3676 19.1812 58.3701 17.9264 58.3778 16.6499C58.3874 14.978 57.6817 13.747 55.9788 13.7715C52.7552 13.8144 53.3766 17.4848 53.342 19.7814C53.3408 19.8603 53.3766 19.9005 53.4494 19.9019L54.3105 19.9121C54.4033 19.9132 54.4924 19.9509 54.5602 20.0178C54.628 20.0847 54.6695 20.1758 54.6767 20.2734L54.6863 20.3897C54.7119 20.7273 54.5661 20.896 54.2491 20.896H51.526C51.2333 20.896 51.0779 20.7409 51.06 20.4306L51.0581 20.3775C51.0547 20.3171 51.063 20.2567 51.0823 20.1998C51.1017 20.143 51.1318 20.0909 51.1708 20.047C51.2098 20.003 51.2568 19.9679 51.309 19.944C51.3612 19.9201 51.4174 19.9079 51.4742 19.908H52.3295C52.3489 19.908 52.3674 19.8998 52.381 19.8853C52.3947 19.8707 52.4024 19.851 52.4024 19.8304L52.4081 13.9511C52.4081 13.9367 52.4054 13.9223 52.4001 13.909C52.3948 13.8956 52.387 13.8834 52.3773 13.8732C52.3675 13.863 52.3558 13.8548 52.343 13.8493C52.3302 13.8438 52.3165 13.8409 52.3027 13.8409L51.4877 13.8511C51.4322 13.852 51.377 13.8408 51.3258 13.818C51.2745 13.7953 51.2281 13.7616 51.1894 13.7189C51.1508 13.6762 51.1208 13.6256 51.1011 13.57C51.0815 13.5145 51.0728 13.4552 51.0754 13.3959L51.0773 13.3305C51.0901 13.0407 51.2333 12.891 51.5069 12.8814C51.9811 12.8637 52.4356 12.8576 52.8703 12.8631C53.5894 12.8712 53.3267 13.9103 53.3382 14.388C53.342 14.5295 53.3714 14.5363 53.4264 14.4084Z" fill="#8C2481"/>
<path d="M25.408 13.8471H24.5949C24.3162 13.8471 24.1865 13.6987 24.2057 13.402L24.2114 13.3061C24.2293 13.0162 24.3751 12.8713 24.6486 12.8713H26.0562C26.1722 12.8713 26.2834 12.9205 26.3654 13.0082C26.4474 13.0959 26.4934 13.2148 26.4934 13.3388V19.8223C26.4934 19.8699 26.5158 19.8937 26.5605 19.8937L27.4676 19.9141C27.5594 19.9163 27.6473 19.9545 27.7145 20.0215C27.7817 20.0885 27.8235 20.1797 27.8319 20.2775L27.8396 20.3878C27.8677 20.7266 27.722 20.8961 27.4024 20.8961H24.6525C24.338 20.8961 24.1878 20.7287 24.2018 20.3939L24.2057 20.2673C24.21 20.1731 24.2475 20.0841 24.3106 20.0185C24.3736 19.953 24.4574 19.9156 24.5451 19.9141L25.3946 19.8978C25.4713 19.8965 25.5097 19.8549 25.5097 19.7733L25.5078 13.9512C25.5078 13.8818 25.4745 13.8471 25.408 13.8471Z" fill="#8C2481"/>
<path d="M39.3518 13.8368L38.5599 13.8491C38.4597 13.8508 38.3628 13.8109 38.2895 13.7379C38.2162 13.6648 38.1722 13.5642 38.1667 13.4571L38.1591 13.3408C38.1559 13.28 38.1645 13.2193 38.1842 13.1622C38.2039 13.1051 38.2343 13.0528 38.2736 13.0087C38.3129 12.9646 38.3603 12.9294 38.4128 12.9054C38.4653 12.8814 38.5219 12.8691 38.579 12.8692L40.0249 12.8713C40.1394 12.8713 40.2491 12.9199 40.33 13.0064C40.4109 13.0929 40.4564 13.2103 40.4564 13.3326L40.4583 19.81C40.4583 19.8753 40.4884 19.908 40.5485 19.908H41.4037C41.5059 19.9079 41.6041 19.95 41.6778 20.0253C41.7514 20.1007 41.7948 20.2035 41.7988 20.3122L41.8007 20.3959C41.8135 20.7293 41.6626 20.896 41.3481 20.896H38.6097C38.5489 20.8961 38.4887 20.8831 38.4326 20.8579C38.3766 20.8327 38.3259 20.7958 38.2835 20.7493C38.2411 20.7029 38.2079 20.6478 38.1859 20.5875C38.1639 20.5271 38.1534 20.4627 38.1552 20.3979L38.1571 20.2693C38.1596 20.1753 38.1961 20.0858 38.2589 20.0196C38.3218 19.9535 38.4063 19.9157 38.4947 19.9141L39.3403 19.8998C39.4158 19.8985 39.4535 19.8576 39.4535 19.7774L39.4554 13.943C39.4554 13.8709 39.4209 13.8355 39.3518 13.8368Z" fill="#8C2481"/>
<path d="M15.7682 15.3842C16.3166 15.4305 16.7634 15.5067 17.1086 15.6129C17.8437 15.8388 18.4612 16.3015 18.9611 17.001C19.2078 17.6379 19.3439 18.2796 19.3695 18.9261C19.3887 19.3956 19.1279 20.3918 18.775 20.7041C18.426 21.0144 18.1978 21.3635 17.7568 21.5697C17.7018 21.5942 17.6666 21.6371 17.6513 21.6983C17.6168 21.829 17.5445 21.9208 17.4346 21.9739C17.2211 22.0746 17.1073 22.1297 17.0933 22.1393C16.2802 22.719 15.3738 22.9545 14.374 22.8456C14.1439 22.8211 13.6881 22.553 13.0067 22.0413C11.9367 20.5755 11.8945 18.7995 12.7843 17.1929C13.4849 16.1491 14.4795 15.5462 15.7682 15.3842Z" fill="#B6408D"/>
<path d="M7.75786 17.6625C8.18869 18.8982 8.17399 20.1319 7.71375 21.3635C7.28292 22.1243 6.75684 22.6843 6.13552 23.0436C4.634 23.9092 2.80456 23.6213 1.58877 22.3495C0.28477 20.9818 0.131358 18.7199 1.16305 17.1154C2.56869 14.927 5.86897 14.8698 7.32063 17.0459C7.47149 17.2705 7.61723 17.476 7.75786 17.6625Z" fill="#F1711B"/>
<path d="M18.9594 17.001C20.087 18.4872 19.972 20.8021 18.8329 22.1617C17.2316 24.0704 14.6466 23.9867 13.0051 22.0413C13.6865 22.553 14.1423 22.8211 14.3724 22.8456C15.3721 22.9544 16.2786 22.719 17.0916 22.1392C17.1057 22.1297 17.2195 22.0746 17.433 21.9739C17.5429 21.9208 17.6152 21.8289 17.6497 21.6983C17.665 21.6371 17.7002 21.5942 17.7551 21.5697C18.1962 21.3635 18.4244 21.0144 18.7734 20.7041C19.1263 20.3918 19.3871 19.3956 19.3679 18.9261C19.3423 18.2796 19.2062 17.6379 18.9594 17.001Z" fill="#B6408D"/>
<path d="M7.75749 17.6624C8.94771 18.4436 10.276 18.5545 11.7424 17.9952C11.9009 17.9353 11.9495 17.9884 11.8881 18.1544C11.5027 19.2159 11.6963 20.0733 11.9993 21.1696C12.0249 21.2608 11.9981 21.2853 11.9188 21.2431C10.5611 20.5177 9.15929 20.5578 7.71338 21.3635C8.17362 20.1319 8.18832 18.8982 7.75749 17.6624Z" fill="#F7AE87"/>
</svg>
