<svg width="46" height="46" viewBox="0 0 46 46" fill="none" xmlns="http://www.w3.org/2000/svg">
<rect width="46" height="46" rx="23" fill="#1E88E5" fill-opacity="0.1"/>
<path d="M23 30.5C27.1325 30.5 30.5 27.1325 30.5 23C30.5 18.8675 27.1325 15.5 23 15.5C18.8675 15.5 15.5 18.8675 15.5 23C15.5 27.1325 18.8675 30.5 23 30.5ZM23.5625 26C23.5625 26.3075 23.3075 26.5625 23 26.5625C22.6925 26.5625 22.4375 26.3075 22.4375 26L22.4375 22.25C22.4375 21.9425 22.6925 21.6875 23 21.6875C23.3075 21.6875 23.5625 21.9425 23.5625 22.25L23.5625 26ZM22.31 19.715C22.3475 19.6175 22.4 19.5425 22.4675 19.4675C22.5425 19.4 22.625 19.3475 22.715 19.31C22.805 19.2725 22.9025 19.25 23 19.25C23.0975 19.25 23.195 19.2725 23.285 19.31C23.375 19.3475 23.4575 19.4 23.5325 19.4675C23.6 19.5425 23.6525 19.6175 23.69 19.715C23.7275 19.805 23.75 19.9025 23.75 20C23.75 20.0975 23.7275 20.195 23.69 20.285C23.6525 20.375 23.6 20.4575 23.5325 20.5325C23.4575 20.6 23.375 20.6525 23.285 20.69C23.105 20.765 22.895 20.765 22.715 20.69C22.625 20.6525 22.5425 20.6 22.4675 20.5325C22.4 20.4575 22.3475 20.375 22.31 20.285C22.2725 20.195 22.25 20.0975 22.25 20C22.25 19.9025 22.2725 19.805 22.31 19.715Z" fill="#1E88E5"/>
</svg>
