<svg width="16" height="16" viewBox="0 0 16 16" fill="none" xmlns="http://www.w3.org/2000/svg">
<path d="M7.52679 6.11337L4.70013 8.94004C4.63764 9.00201 4.58805 9.07575 4.5542 9.15699C4.52036 9.23823 4.50293 9.32536 4.50293 9.41337C4.50293 9.50138 4.52036 9.58852 4.5542 9.66976C4.58805 9.751 4.63764 9.82473 4.70013 9.8867C4.82504 10.0109 4.994 10.0806 5.17013 10.0806C5.34625 10.0806 5.51522 10.0109 5.64013 9.8867L8.00013 7.52671L10.3601 9.8867C10.485 10.0109 10.654 10.0806 10.8301 10.0806C11.0063 10.0806 11.1752 10.0109 11.3001 9.8867C11.3619 9.82441 11.4108 9.75053 11.444 9.66931C11.4772 9.58808 11.494 9.50111 11.4935 9.41337C11.494 9.32563 11.4772 9.23866 11.444 9.15743C11.4108 9.07621 11.3619 9.00233 11.3001 8.94004L8.47346 6.11337C8.41149 6.05089 8.33775 6.00129 8.25651 5.96744C8.17527 5.9336 8.08814 5.91617 8.00013 5.91617C7.91212 5.91617 7.82498 5.9336 7.74374 5.96744C7.6625 6.00129 7.58877 6.05089 7.52679 6.11337Z" fill="#90909D"/>
</svg>
