<svg width="20" height="20" viewBox="0 0 20 20" fill="none" xmlns="http://www.w3.org/2000/svg">
<path d="M5.83342 12.3584C5.98955 12.5136 6.20076 12.6007 6.42092 12.6007C6.64107 12.6007 6.85228 12.5136 7.00842 12.3584L10.0001 9.40838L12.9501 12.3584C13.1062 12.5136 13.3174 12.6007 13.5376 12.6007C13.7577 12.6007 13.9689 12.5136 14.1251 12.3584C14.2032 12.2809 14.2652 12.1887 14.3075 12.0872C14.3498 11.9856 14.3716 11.8767 14.3716 11.7667C14.3716 11.6567 14.3498 11.5478 14.3075 11.4462C14.2652 11.3447 14.2032 11.2525 14.1251 11.175L10.5918 7.64171C10.5143 7.56361 10.4221 7.50161 10.3206 7.45931C10.219 7.417 10.1101 7.39522 10.0001 7.39522C9.89007 7.39522 9.78115 7.417 9.6796 7.45931C9.57805 7.50161 9.48589 7.56361 9.40842 7.64171L5.83342 11.175C5.75531 11.2525 5.69332 11.3447 5.65101 11.4462C5.6087 11.5478 5.58692 11.6567 5.58692 11.7667C5.58692 11.8767 5.6087 11.9856 5.65101 12.0872C5.69332 12.1887 5.75531 12.2809 5.83342 12.3584Z" fill="#151515"/>
</svg>
